<svg width="121" height="120" viewBox="0 0 121 120" fill="none" xmlns="http://www.w3.org/2000/svg">
<path d="M19.2046 97.6125C42.0107 109.527 78.9892 109.527 101.795 97.6125C124.601 85.6984 124.601 66.3812 101.795 54.4644C78.9892 42.5477 42.0212 42.5503 19.2046 54.4644C-3.61199 66.3786 -3.59113 85.6984 19.2046 97.6125Z" fill="#E8E5F9"/>
<path d="M29.8959 85.0594C29.8959 85.0594 29.9246 80.9237 27.317 77.8232C25.0092 75.0774 23.781 73.3356 24.5086 72.5324C25.2361 71.7293 26.8007 71.5363 28.9102 73.758C31.0198 75.9797 31.184 82.1336 30.892 83.5261L29.8959 85.0594Z" fill="#6869AC"/>
<path opacity="0.2" d="M29.8959 85.0594C29.8959 85.0594 29.9246 80.9237 27.317 77.8232C25.0092 75.0774 23.781 73.3356 24.5086 72.5324C25.2361 71.7293 26.8007 71.5363 28.9102 73.758C31.0198 75.9797 31.184 82.1336 30.892 83.5261L29.8959 85.0594Z" fill="#101723"/>
<path d="M30.3339 80.6133C30.3042 80.6135 30.2753 80.6034 30.2521 80.5849C30.2289 80.5665 30.2126 80.5406 30.2061 80.5116C29.2934 76.243 26.9518 73.8831 25.635 72.8557C25.6077 72.8346 25.5899 72.8035 25.5855 72.7693C25.5811 72.7351 25.5905 72.7005 25.6115 72.6731C25.6331 72.6457 25.6646 72.6279 25.6993 72.6235C25.7339 72.6191 25.7689 72.6285 25.7966 72.6497C27.1396 73.6927 29.5307 76.1074 30.4617 80.4569C30.4655 80.4735 30.4659 80.4907 30.463 80.5075C30.4601 80.5243 30.4538 80.5403 30.4446 80.5547C30.4353 80.569 30.4233 80.5814 30.4092 80.591C30.3951 80.6006 30.3793 80.6073 30.3626 80.6107L30.3339 80.6133Z" fill="white"/>
<path d="M29.7967 86.5951L28.7354 87.2079C28.6222 86.8985 28.4313 86.6235 28.181 86.4093C27.9308 86.1952 27.6296 86.049 27.3065 85.9849C26.1461 85.7241 24.9414 85.7685 24.1278 84.7619C23.3142 83.7554 24.3051 82.6602 24.1278 81.9196C23.9505 81.1791 23.8357 80.9653 22.3807 80.2247C20.9256 79.4841 20.352 78.2559 21.4472 77.4241C22.5424 76.5923 24.3155 77.2025 25.3899 77.9456C26.3443 78.5975 27.2517 78.7697 28.3182 78.9026C29.3847 79.0356 31.1214 79.6276 30.8554 82.1048C30.6813 83.6381 30.3259 85.1454 29.7967 86.5951Z" fill="#6869AC"/>
<path d="M25.7236 83.3408C25.6958 83.3406 25.6688 83.3317 25.6463 83.3153C25.6239 83.2989 25.6071 83.276 25.5984 83.2496C25.5885 83.2164 25.592 83.1807 25.6081 83.15C25.6241 83.1193 25.6516 83.0961 25.6845 83.0853C25.7783 83.0566 28.0313 82.3421 28.9883 83.1088C29.0121 83.1312 29.0265 83.1617 29.0289 83.1943C29.0312 83.2269 29.0212 83.2591 29.0009 83.2847C28.9805 83.3103 28.9514 83.3273 28.9191 83.3324C28.8868 83.3375 28.8538 83.3302 28.8266 83.3122C27.9818 82.6342 25.7862 83.3278 25.7627 83.3356L25.7236 83.3408Z" fill="white"/>
<path d="M29.9141 86.3971C29.8823 86.3972 29.8517 86.3856 29.8281 86.3644C29.8044 86.3432 29.7896 86.3139 29.7863 86.2823C29.2048 80.7907 22.5893 78.1857 22.5241 78.1596C22.508 78.1536 22.4932 78.1444 22.4806 78.1325C22.468 78.1207 22.4579 78.1065 22.4509 78.0907C22.4439 78.0749 22.44 78.0579 22.4396 78.0407C22.4392 78.0234 22.4422 78.0062 22.4485 77.9902C22.4613 77.9586 22.4858 77.9331 22.5169 77.919C22.5479 77.9049 22.5832 77.9033 22.6154 77.9145C22.6858 77.9432 29.4473 80.603 30.0445 86.2589C30.0481 86.2931 30.0381 86.3274 30.0166 86.3542C29.9952 86.3811 29.9639 86.3984 29.9297 86.4023L29.9141 86.3971Z" fill="white"/>
<path d="M94.7731 82.9889C94.8018 82.8976 95.9205 77.14 94.7731 73.0565C93.7301 69.312 92.3689 67.9299 90.4289 67.6249C88.4888 67.3198 87.6465 68.7174 88.6765 70.6106C89.7066 72.5037 92.1864 75.0148 92.794 79.2444C93.0547 80.9862 93.2529 82.4987 93.2529 82.4987L94.7731 82.9889Z" fill="#6869AC"/>
<path opacity="0.2" d="M94.7731 82.9889C94.8018 82.8976 95.9205 77.14 94.7731 73.0565C93.7301 69.312 92.3689 67.9299 90.4289 67.6249C88.4888 67.3198 87.6465 68.7174 88.6765 70.6106C89.7066 72.5037 92.1864 75.0148 92.794 79.2444C93.0547 80.9862 93.2529 82.4987 93.2529 82.4987L94.7731 82.9889Z" fill="#101723"/>
<path d="M94.1186 79.6824C94.1015 79.6814 94.0847 79.6771 94.0693 79.6696C94.0538 79.6621 94.04 79.6516 94.0286 79.6388C94.0173 79.6259 94.0085 79.611 94.0029 79.5947C93.9973 79.5785 93.995 79.5613 93.9961 79.5442C94.2568 74.8818 92.734 70.7201 90.0038 68.6783C89.9762 68.6576 89.9579 68.6267 89.953 68.5925C89.9481 68.5582 89.957 68.5234 89.9777 68.4958C89.9989 68.4687 90.0297 68.4508 90.0638 68.446C90.0978 68.4411 90.1324 68.4496 90.1603 68.4697C92.9582 70.5558 94.528 74.8114 94.2542 79.5599C94.2522 79.594 94.2368 79.626 94.2115 79.6489C94.1861 79.6718 94.1528 79.6839 94.1186 79.6824Z" fill="white"/>
<path d="M97.7745 85.9875C97.6259 84.9158 98.2413 83.3095 99.7041 82.9288C101.167 82.5481 101.819 81.7084 101.292 80.7905C100.765 79.8727 100.888 79.0304 102.215 78.6497C103.543 78.269 104.706 77.6067 103.941 76.2038C103.386 75.1894 103.264 74.5323 104.625 72.5349C105.754 70.8764 104.831 69.9038 103.417 70.0863C102.004 70.2689 101.13 71.9534 100.247 72.235C99.3625 72.5166 99.1591 71.0146 97.9935 71.6874C96.8279 72.3602 96.8983 74.0838 96.8618 75.2859C96.8253 76.488 96.7471 76.7592 95.6936 76.6132C94.6401 76.4671 93.6075 76.6392 93.631 79.1869C93.6493 81.372 94.8149 84.0787 94.8149 84.0787L97.7745 85.9875Z" fill="#6869AC"/>
<path d="M95.9257 84.3579H95.9126C95.8778 84.354 95.8459 84.3364 95.8239 84.3091C95.8019 84.2817 95.7916 84.2468 95.7953 84.2119C96.5306 77.6433 102.168 72.1022 103.639 70.9783C103.667 70.9572 103.702 70.9479 103.736 70.9526C103.77 70.9572 103.802 70.9754 103.823 71.0031C103.844 71.0307 103.853 71.0656 103.848 71.1001C103.844 71.1346 103.826 71.1658 103.798 71.1869C102.346 72.2951 96.781 77.7633 96.056 84.2406C96.0522 84.2726 96.0369 84.3022 96.0129 84.3238C95.989 84.3454 95.9579 84.3575 95.9257 84.3579Z" fill="white"/>
<path d="M98.4968 77.3354C98.4704 77.3353 98.4446 77.3272 98.4228 77.3124C98.401 77.2975 98.3841 77.2765 98.3742 77.252C98.3631 77.2191 98.365 77.1832 98.3795 77.1516C98.3941 77.1201 98.4202 77.0954 98.4525 77.0825C100.554 76.3002 102.938 76.6705 103.039 76.6861C103.073 76.6919 103.103 76.7107 103.123 76.7385C103.143 76.7664 103.151 76.8009 103.146 76.8348C103.14 76.8684 103.121 76.8984 103.093 76.9187C103.066 76.9391 103.032 76.9482 102.998 76.9443C102.974 76.9443 100.58 76.5688 98.5437 77.3276C98.5286 77.3327 98.5128 77.3354 98.4968 77.3354Z" fill="white"/>
<path d="M96.6245 81.2835C96.6062 81.2833 96.5882 81.2792 96.5715 81.2716C96.5549 81.2639 96.5401 81.2529 96.528 81.2391C95.654 80.2213 95.0615 78.9923 94.8096 77.6745C94.807 77.6576 94.8078 77.6403 94.8119 77.6236C94.816 77.607 94.8233 77.5913 94.8335 77.5775C94.8437 77.5637 94.8565 77.552 94.8712 77.5432C94.8859 77.5343 94.9022 77.5285 94.9191 77.5259C94.9361 77.5233 94.9534 77.5241 94.97 77.5282C94.9867 77.5323 95.0024 77.5397 95.0162 77.5498C95.03 77.56 95.0416 77.5728 95.0505 77.5875C95.0593 77.6022 95.0652 77.6185 95.0678 77.6354C95.3171 78.9013 95.8872 80.082 96.7236 81.0644C96.7399 81.0836 96.7504 81.1071 96.7539 81.132C96.7574 81.1569 96.7538 81.1824 96.7434 81.2053C96.733 81.2283 96.7163 81.2478 96.6953 81.2616C96.6742 81.2755 96.6497 81.283 96.6245 81.2835Z" fill="white"/>
<path d="M29.7968 46.2372V86.5977L71.1065 62.7485L71.1039 26.0569L40.3889 43.7912L39.3276 40.7325L29.7968 46.2372Z" fill="#6869AC"/>
<path opacity="0.7" d="M29.7968 46.2372V86.5977L71.1065 62.7485L71.1039 26.0569L40.3889 43.7912L39.3276 40.7325L29.7968 46.2372Z" fill="#101723"/>
<path d="M29.7968 86.5977L31.9141 49.9061L73.2239 26.0569L71.1065 62.7485L29.7968 86.5977Z" fill="#9A99C9"/>
<path d="M29.7968 86.5976L32.9728 50.5188L74.2825 26.667L71.1065 62.7485L29.7968 86.5976Z" fill="#6869AC"/>
<path opacity="0.7" d="M29.7968 86.5976L32.9728 50.5188L74.2825 26.667L71.1065 62.7485L29.7968 86.5976Z" fill="#101723"/>
<path d="M36.1515 49.9063V90.2695L77.4612 66.4177V29.726L46.7436 47.4604L45.6849 44.4016L36.1515 49.9063Z" fill="#6869AC"/>
<path opacity="0.5" d="M36.1515 49.9063V90.2695L77.4612 66.4177V29.726L46.7436 47.4604L45.6849 44.4016L36.1515 49.9063Z" fill="#101723"/>
<path d="M36.1515 90.2695L38.2689 53.5752L79.5786 29.726L77.4612 66.4177L36.1515 90.2695Z" fill="#9A99C9"/>
<path d="M36.1515 90.2694L39.3276 54.188L80.6373 30.3362L77.4612 66.4177L36.1515 90.2694Z" fill="#6869AC"/>
<path opacity="0.5" d="M36.1515 90.2694L39.3276 54.188L80.6373 30.3362L77.4612 66.4177L36.1515 90.2694Z" fill="#101723"/>
<path d="M71.096 103.112C63.6799 98.8302 56.8011 94.1756 53.6615 88.7153L63.2053 83.2054L71.096 103.112Z" fill="#9A99C9"/>
<path d="M43.5648 54.1879V94.5485L84.8745 70.6993V34.0076L54.1569 51.742L53.0982 48.6832L43.5648 54.1879Z" fill="#6869AC"/>
<path opacity="0.2" d="M43.5648 54.1879V94.5485L84.8745 70.6993V34.0076L54.1569 51.742L53.0982 48.6832L43.5648 54.1879Z" fill="#101723"/>
<path d="M55.4659 66.1204C55.3616 66.1204 55.3459 66.0004 55.3459 65.93V31.5096C55.3543 31.376 55.3935 31.2463 55.4605 31.1305C55.5274 31.0146 55.6203 30.9159 55.7319 30.842L85.5473 13.6318C85.5881 13.6063 85.6348 13.592 85.6829 13.5901C85.7872 13.5901 85.8028 13.71 85.8028 13.7804V48.2009C85.7946 48.3348 85.7555 48.465 85.6886 48.5813C85.6216 48.6976 85.5286 48.7967 85.4169 48.871L55.6015 66.0812C55.5603 66.1055 55.5137 66.1189 55.4659 66.1204Z" fill="white"/>
<path d="M85.6672 13.7101C85.6693 13.7292 85.6693 13.7484 85.6672 13.7675V48.1879C85.6586 48.2989 85.6254 48.4066 85.5699 48.5031C85.5144 48.5997 85.438 48.6826 85.3464 48.7459L55.5311 65.9561L55.4789 65.9796C55.4754 65.9606 55.4754 65.9412 55.4789 65.9222V31.5018C55.4879 31.3912 55.5213 31.2841 55.5768 31.188C55.6322 31.0919 55.7084 31.0094 55.7996 30.9464L85.615 13.7362C85.6315 13.7247 85.6501 13.7167 85.6698 13.7127M85.6854 13.4519C85.6144 13.4541 85.5452 13.4747 85.4846 13.5119L55.6693 30.7221C55.5382 30.8082 55.4291 30.9238 55.3508 31.0597C55.2724 31.1955 55.227 31.3478 55.2181 31.5044V65.9248C55.2181 66.1282 55.3198 66.2456 55.4789 66.2456C55.55 66.2437 55.6192 66.223 55.6797 66.1856L85.4951 48.9754C85.6267 48.8899 85.7362 48.7744 85.8147 48.6385C85.8931 48.5025 85.9381 48.3499 85.9462 48.1931V13.7727C85.9462 13.5693 85.8445 13.4493 85.6854 13.4519Z" fill="#6869AC"/>
<path opacity="0.7" d="M85.6672 13.7101C85.6693 13.7292 85.6693 13.7484 85.6672 13.7675V48.1879C85.6586 48.2989 85.6254 48.4066 85.5699 48.5031C85.5144 48.5997 85.438 48.6826 85.3464 48.7459L55.5311 65.9561L55.4789 65.9796C55.4754 65.9606 55.4754 65.9412 55.4789 65.9222V31.5018C55.4879 31.3912 55.5213 31.2841 55.5768 31.188C55.6322 31.0919 55.7084 31.0094 55.7996 30.9464L85.615 13.7362C85.6315 13.7247 85.6501 13.7167 85.6698 13.7127M85.6854 13.4519C85.6144 13.4541 85.5452 13.4747 85.4846 13.5119L55.6693 30.7221C55.5382 30.8082 55.4291 30.9238 55.3508 31.0597C55.2724 31.1955 55.227 31.3478 55.2181 31.5044V65.9248C55.2181 66.1282 55.3198 66.2456 55.4789 66.2456C55.55 66.2437 55.6192 66.223 55.6797 66.1856L85.4951 48.9754C85.6267 48.8899 85.7362 48.7744 85.8147 48.6385C85.8931 48.5025 85.9381 48.3499 85.9462 48.1931V13.7727C85.9462 13.5693 85.8445 13.4493 85.6854 13.4519Z" fill="white"/>
<path d="M58.3943 32.8161L68.9864 26.7013V38.931L58.3943 45.0458V32.8161Z" fill="#6869AC"/>
<path opacity="0.8" d="M58.3943 32.8161L68.9864 26.7013V38.931L58.3943 45.0458V32.8161Z" fill="white"/>
<path d="M67.3984 29.7494V33.4261L67.0646 33.6113V32.4874C67.0646 31.8668 66.5613 31.6556 65.9355 32.0154L61.4478 34.61C60.8246 34.9698 60.3187 35.7651 60.3187 36.3858V37.5096L59.9875 37.7078V34.0389L67.3984 29.7494Z" fill="white"/>
<path d="M65.3592 39.1107C64.8168 39.4236 64.3761 39.095 64.3761 38.3727V32.4874L63.0123 33.2279V39.1602C63.0123 39.8799 62.5716 40.7248 62.0293 41.0299L61.0436 41.5983V41.9895L66.3396 38.9308V38.5422L65.3592 39.1107Z" fill="white"/>
<path d="M71.0959 26.0987C71.0959 26.4377 71.401 26.5342 71.7739 26.3204L82.0792 20.362C82.262 20.2583 82.4184 20.1138 82.536 19.9396C82.6536 19.7654 82.7293 19.5664 82.7572 19.3581C82.7572 19.0217 82.4521 18.9226 82.0792 19.139L71.7817 25.0844C71.5959 25.1878 71.437 25.3335 71.3178 25.5097C71.1987 25.6859 71.1227 25.8877 71.0959 26.0987Z" fill="#3E4551"/>
<path d="M71.0959 29.7494C71.0959 30.0884 71.401 30.1875 71.7739 29.971L82.0714 24.0257C82.2542 23.922 82.4106 23.7775 82.5282 23.6033C82.6458 23.4291 82.7215 23.2301 82.7493 23.0217C82.7493 22.6854 82.4443 22.5863 82.0714 22.8027L71.7739 28.7481C71.5914 28.8514 71.4352 28.9956 71.3176 29.1693C71.2 29.343 71.1242 29.5415 71.0959 29.7494Z" fill="#3E4551"/>
<path d="M71.0959 33.4261C71.0959 33.7651 71.401 33.8642 71.7739 33.6478L82.0714 27.7024C82.2539 27.5991 82.4101 27.4549 82.5277 27.2812C82.6453 27.1075 82.7211 26.909 82.7493 26.7011C82.7493 26.3621 82.4443 26.263 82.0714 26.4795L71.7739 32.4248C71.5914 32.5282 71.4352 32.6724 71.3176 32.8461C71.2 33.0198 71.1242 33.2183 71.0959 33.4261Z" fill="#3E4551"/>
<path d="M71.0959 37.0951C71.0959 37.4341 71.401 37.5332 71.7739 37.3168L82.0714 31.3714C82.2539 31.2681 82.4101 31.1239 82.5277 30.9502C82.6453 30.7765 82.7211 30.578 82.7493 30.3701C82.7493 30.0311 82.4443 29.932 82.0714 30.1485L71.7739 36.0938C71.5914 36.1972 71.4352 36.3414 71.3176 36.5151C71.2 36.6888 71.1242 36.8873 71.0959 37.0951Z" fill="#3E4551"/>
<path d="M58.3943 48.1044C58.3943 48.4434 58.6968 48.5425 59.0723 48.3261L82.0792 35.0273C82.262 34.9242 82.4183 34.7801 82.536 34.6064C82.6536 34.4326 82.7293 34.2339 82.7572 34.0259C82.7572 33.687 82.4521 33.5905 82.0792 33.8043L59.0723 47.1031C58.8894 47.206 58.7329 47.35 58.6152 47.5238C58.4976 47.6976 58.4219 47.8964 58.3943 48.1044Z" fill="#3E4551"/>
<path d="M58.3943 51.7733C58.3943 52.1123 58.6968 52.2114 59.0723 51.995L82.0792 38.7118C82.262 38.6082 82.4184 38.4636 82.536 38.2895C82.6536 38.1153 82.7293 37.9162 82.7572 37.7079C82.7572 37.3715 82.4521 37.2724 82.0792 37.4889L59.0723 50.772C58.8894 50.8749 58.7329 51.019 58.6152 51.1928C58.4976 51.3665 58.4219 51.5653 58.3943 51.7733Z" fill="#3E4551"/>
<path d="M58.3943 55.4449C58.3943 55.7813 58.6968 55.8804 59.0723 55.6639L82.0792 42.3808C82.262 42.2771 82.4184 42.1326 82.536 41.9584C82.6536 41.7842 82.7293 41.5852 82.7572 41.3769C82.7572 41.0405 82.4521 40.9414 82.0792 41.1578L59.0723 54.441C58.889 54.5441 58.7324 54.6886 58.6147 54.8628C58.497 55.0371 58.4215 55.2364 58.3943 55.4449Z" fill="#3E4551"/>
<path d="M43.5648 94.5486L50.9783 62.1386L92.288 38.2868L84.8745 70.6994L43.5648 94.5486Z" fill="#6869AC"/>
<path d="M53.6719 64.6756V88.7152L63.2053 83.2105V59.1736L53.6719 64.6756Z" fill="#6869AC"/>
<path opacity="0.2" d="M53.6719 64.6756V88.7152L63.2053 83.2105V59.1736L53.6719 64.6756Z" fill="#101723"/>
<path d="M71.1143 102.955C70.3033 102.35 62.4857 96.3764 58.5117 87.8312C54.2821 78.7463 54.2874 68.149 54.2874 64.162V64.0368L82.6268 47.6767C82.6268 51.7002 82.6268 62.3132 86.8746 71.4294C90.7574 79.7737 98.2751 85.6722 99.4668 86.5744L71.1143 102.955Z" fill="white"/>
<path d="M82.4964 47.9115C82.4964 52.1045 82.5772 62.5141 86.7572 71.4947C90.5096 79.5522 97.644 85.3463 99.232 86.5693L71.122 102.799C70.0242 101.972 62.5012 96.0975 58.6315 87.787C54.4072 78.7282 54.4072 68.1517 54.4072 64.1699V64.1204L82.4859 47.9089M82.7467 47.4577L54.1465 63.9717C54.1465 67.7241 54.0682 78.6265 58.3838 87.8965C62.6316 96.9945 71.0959 103.112 71.0959 103.112L99.704 86.5953C99.704 86.5953 91.2293 80.4779 86.9945 71.3799C82.6763 62.1099 82.7571 51.2075 82.7571 47.4551L82.7467 47.4577Z" fill="#6869AC"/>
<path opacity="0.7" d="M82.4964 47.9115C82.4964 52.1045 82.5772 62.5141 86.7572 71.4947C90.5096 79.5522 97.644 85.3463 99.232 86.5693L71.122 102.799C70.0242 101.972 62.5012 96.0975 58.6315 87.787C54.4072 78.7282 54.4072 68.1517 54.4072 64.1699V64.1204L82.4859 47.9089M82.7467 47.4577L54.1465 63.9717C54.1465 67.7241 54.0682 78.6265 58.3838 87.8965C62.6316 96.9945 71.0959 103.112 71.0959 103.112L99.704 86.5953C99.704 86.5953 91.2293 80.4779 86.9945 71.3799C82.6763 62.1099 82.7571 51.2075 82.7571 47.4551L82.7467 47.4577Z" fill="white"/>
<path d="M79.5211 52.9964L70.4779 58.2116C70.2969 58.3112 70.1426 58.4531 70.0282 58.6252C69.9138 58.7973 69.8426 58.9944 69.8208 59.1999C69.8338 59.5311 70.1494 59.6249 70.5222 59.4085L79.568 54.1933C79.7469 54.0946 79.8996 53.9546 80.0135 53.785C80.1273 53.6153 80.199 53.421 80.2226 53.218C80.2069 52.8738 79.8966 52.78 79.5211 52.9964Z" fill="#3E4551"/>
<path d="M79.7141 56.5556L70.671 61.7708C70.4921 61.867 70.3405 62.0068 70.2301 62.1773C70.1198 62.3478 70.0544 62.5435 70.0399 62.746C70.0686 63.0668 70.3972 63.1528 70.77 62.9364L79.8158 57.7212C79.9938 57.6254 80.1444 57.4858 80.2535 57.3156C80.3625 57.1454 80.4264 56.9503 80.4391 56.7485C80.413 56.4252 80.0896 56.347 79.7141 56.5556Z" fill="#3E4551"/>
<path d="M80.0766 60.0159L71.0308 65.2311C70.6579 65.4475 70.3867 65.8778 70.431 66.1881C70.4753 66.4984 70.8169 66.5792 71.1924 66.3628L80.2382 61.1476C80.6111 60.9311 80.8771 60.5035 80.8302 60.1932C80.7832 59.8829 80.4494 59.7994 80.0766 60.0159Z" fill="#3E4551"/>
<path d="M80.619 63.3721L71.5732 68.5873C71.2003 68.8037 70.9421 69.2261 71.0047 69.5286C71.0673 69.8311 71.4219 69.8989 71.787 69.6825L80.8302 64.4673C81.2057 64.2508 81.456 63.831 81.3934 63.5285C81.3308 63.226 81.0049 63.1556 80.619 63.3721Z" fill="#3E4551"/>
<path d="M81.3543 66.6158L72.3085 71.8311C71.9356 72.0475 71.6931 72.4595 71.787 72.7489C71.8808 73.0384 72.2381 73.1036 72.611 72.8871L81.6568 67.6719C82.0323 67.4555 82.2669 67.0461 82.1783 66.754C82.0896 66.462 81.7272 66.3994 81.3543 66.6158Z" fill="#3E4551"/>
<path d="M82.3087 69.7423L60.264 82.47C59.8911 82.6865 59.6642 83.0881 59.7659 83.3671C59.8676 83.6461 60.2561 83.6982 60.629 83.4818L82.6737 70.7541C83.0492 70.5376 83.2657 70.1387 83.164 69.857C83.0623 69.5754 82.6685 69.5259 82.3087 69.7423Z" fill="#3E4551"/>
<path d="M83.4691 72.7279L61.4269 85.4557C61.0515 85.6721 60.8454 86.0632 60.9706 86.3292C61.0958 86.5952 61.4921 86.6369 61.8728 86.4205L83.9176 73.6927C84.2931 73.4763 84.4938 73.0852 84.3687 72.8192C84.2435 72.5532 83.8446 72.5141 83.4691 72.7279Z" fill="#3E4551"/>
<path d="M84.9163 75.573L62.8716 88.3007C62.4961 88.5171 62.3109 88.8978 62.4596 89.1508C62.6082 89.4037 63.0332 89.4298 63.4087 89.2134L85.4378 76.4856C85.8107 76.2718 85.9906 75.8937 85.842 75.6408C85.6933 75.3878 85.2813 75.3565 84.9163 75.573Z" fill="#3E4551"/>
<path d="M86.6033 78.2639L64.5612 90.989C64.1857 91.2055 64.0188 91.5784 64.1883 91.8157C64.3578 92.0529 64.8037 92.0764 65.1792 91.8574L87.2213 79.1296C87.5968 78.9132 87.7585 78.5455 87.589 78.3056C87.4195 78.0657 86.9788 78.0475 86.6033 78.2639Z" fill="#3E4551"/>
<path d="M88.5278 80.822L66.4831 93.5471C66.1102 93.7635 65.9616 94.126 66.1493 94.3528C66.3371 94.5797 66.7986 94.5901 67.1741 94.3737L89.2188 81.6408C89.5917 81.4243 89.7404 81.0671 89.5474 80.8402C89.3544 80.6134 88.9033 80.5977 88.5278 80.822Z" fill="#3E4551"/>
<path d="M90.653 83.2575L68.6161 95.9826C68.2406 96.1991 68.0946 96.5537 68.3136 96.7649C68.5327 96.9761 68.9968 96.9813 69.3697 96.7649L91.4144 84.0372C91.7899 83.8208 91.9203 83.4713 91.7117 83.2549C91.5031 83.0385 91.0337 83.0437 90.653 83.2575Z" fill="#3E4551"/>
<path d="M92.9998 85.5861L70.9551 98.3112C70.5822 98.5277 70.4596 98.8745 70.6943 99.0805C70.929 99.2865 71.4088 99.2786 71.7843 99.0622L93.8108 86.3345C94.1836 86.118 94.301 85.7791 94.0715 85.5705C93.842 85.3618 93.3649 85.3697 92.9998 85.5861Z" fill="#3E4551"/>
<path d="M67.2002 60.1125L56.801 66.11C56.9158 69.878 57.346 75.3122 58.921 80.7856L69.3228 74.7881C67.7452 69.3147 67.3149 63.8779 67.2002 60.1125Z" fill="#6869AC"/>
<path opacity="0.8" d="M67.2002 60.1125L56.801 66.11C56.9158 69.878 57.346 75.3122 58.921 80.7856L69.3228 74.7881C67.7452 69.3147 67.3149 63.8779 67.2002 60.1125Z" fill="white"/>
<path d="M61.041 65.2808C61.055 65.0375 61.0172 64.7941 60.93 64.5666C60.8427 64.3391 60.7082 64.1328 60.5351 63.9613L56.801 66.1152C56.8323 67.1113 56.8845 68.2247 56.9757 69.4242C57.4615 69.4801 57.9528 69.3893 58.3865 69.1635C59.8545 68.4907 61.041 66.7462 61.041 65.2808Z" fill="#6869AC"/>
<path opacity="0.6" d="M61.041 65.2808C61.055 65.0375 61.0172 64.7941 60.93 64.5666C60.8427 64.3391 60.7082 64.1328 60.5351 63.9613L56.801 66.1152C56.8323 67.1113 56.8845 68.2247 56.9757 69.4242C57.4615 69.4801 57.9528 69.3893 58.3865 69.1635C59.8545 68.4907 61.041 66.7462 61.041 65.2808Z" fill="white"/>
<path d="M68.4388 71.1896C67.7451 70.316 66.3344 67.6172 65.7321 66.4411C65.7084 66.3947 65.6713 66.3563 65.6256 66.3311C65.58 66.3059 65.5278 66.295 65.4758 66.2998C65.4239 66.3046 65.3746 66.3248 65.3342 66.3579C65.2939 66.391 65.2645 66.4354 65.2497 66.4855C64.598 68.713 64.2197 71.0115 64.1232 73.3304C63.2547 72.641 62.5081 71.8107 61.9145 70.8741C61.8892 70.8378 61.8541 70.8095 61.8132 70.7925C61.7724 70.7755 61.7275 70.7706 61.6839 70.7783C61.6404 70.7859 61.5999 70.8059 61.5673 70.8358C61.5347 70.8657 61.5113 70.9043 61.4999 70.9471C60.363 75.3253 60.9341 79.633 60.9341 79.633L69.3227 74.7881C68.9733 73.5782 68.6839 72.3735 68.4388 71.1896Z" fill="#6869AC"/>
<path opacity="0.6" d="M68.6481 70.8909C67.9545 70.0173 66.5438 67.3185 65.9414 66.1424C65.9177 66.0959 65.8807 66.0576 65.835 66.0324C65.7893 66.0072 65.7371 65.9963 65.6852 66.0011C65.6332 66.0059 65.5839 66.0261 65.5436 66.0592C65.5033 66.0923 65.4738 66.1367 65.459 66.1868C64.8073 68.4143 64.4291 70.7128 64.3325 73.0317C63.4641 72.3423 62.7175 71.512 62.1239 70.5754C62.0986 70.5391 62.0634 70.5108 62.0226 70.4938C61.9817 70.4768 61.9368 70.4719 61.8933 70.4796C61.8497 70.4872 61.8092 70.5072 61.7766 70.5371C61.744 70.567 61.7207 70.6056 61.7093 70.6484C60.5724 75.0266 61.1434 79.3343 61.1434 79.3343L69.5321 74.4894C69.1827 73.2795 68.8932 72.0747 68.6481 70.8909Z" fill="white"/>
</svg>
