<svg width="121" height="120" viewBox="0 0 121 120" fill="none" xmlns="http://www.w3.org/2000/svg">
<path d="M112.172 112.632C112.172 112.668 88.8464 112.694 60.092 112.694C31.3376 112.694 7.99524 112.668 7.99524 112.632C7.99524 112.596 31.316 112.57 60.092 112.57C88.868 112.57 112.172 112.598 112.172 112.632Z" fill="#3E4551"/>
<path d="M55.5344 39.0792C55.5344 39.0792 58.004 36.8544 58.3592 36.7176C58.7144 36.5808 61.5848 36.4128 61.784 36.5496C61.9832 36.6864 64.9544 38.1648 64.4816 38.4288C64.0088 38.6928 61.94 37.6296 61.94 37.6296L61.6016 37.6872C61.6016 37.6872 63.3968 38.556 63.7256 38.9064C64.0544 39.2568 63.7664 39.6264 63.4328 39.4968C63.0992 39.3672 61.5536 38.5368 61.436 38.5848C61.3184 38.6328 63.0872 39.564 63.2528 39.744C63.476 39.984 63.3584 40.4808 63.0128 40.3536C62.8136 40.2768 61.1792 39.2856 61.1792 39.2856C61.1792 39.2856 62.42 40.2456 62.5136 40.4136C62.6648 40.6776 62.4032 40.9344 62.12 40.7736C61.9256 40.6656 61.0736 39.8928 60.812 39.7464C60.812 39.7464 60.5288 39.7464 60.1328 40.1952C59.9432 40.4136 58.9328 41.6352 58.1192 41.0976L57.2216 41.7984L55.5344 39.0792Z" fill="#FFBE9D"/>
<path d="M64.4744 38.4336C64.2692 38.472 64.0583 38.4671 63.8552 38.4192C63.6327 38.3844 63.4141 38.3282 63.2024 38.2512C62.9624 38.1528 62.7224 38.0376 62.4584 37.9176L61.8992 37.656H61.9352C61.4437 37.7029 60.9491 37.7078 60.4568 37.6704C60.9418 37.5758 61.434 37.5221 61.928 37.5096H61.94H61.9592L62.5136 37.7616L63.248 38.1048C63.4509 38.185 63.6594 38.25 63.872 38.2992C64.2416 38.4 64.4744 38.4 64.4744 38.4336Z" fill="#EB996E"/>
<path d="M66.98 48L59.216 46.08C59.0883 46.0486 58.9681 45.9922 58.8622 45.9143C58.7563 45.8363 58.6668 45.7383 58.5988 45.6257C58.5309 45.5132 58.4857 45.3883 58.466 45.2583C58.4463 45.1283 58.4524 44.9957 58.484 44.868L61.124 34.1208C61.1903 33.8678 61.3529 33.6508 61.5772 33.5162C61.8015 33.3817 62.0696 33.3402 62.324 33.4008L67.2488 34.6008L70.0928 39.4704L68.1728 47.2584C68.1111 47.5139 67.9515 47.7349 67.7283 47.8736C67.5052 48.0124 67.2364 48.0578 66.98 48Z" fill="#6869AC"/>
<path d="M67.2752 34.608L66.5312 37.6344C66.5016 37.7536 66.496 37.8775 66.5147 37.9988C66.5334 38.1202 66.576 38.2366 66.6401 38.3414C66.7042 38.4461 66.7885 38.537 66.888 38.6089C66.9876 38.6808 67.1005 38.7322 67.22 38.76L70.1288 39.48L67.2752 34.608Z" fill="#6869AC"/>
<path d="M65.9096 37.3488C65.9096 37.3896 65.0888 37.2216 64.0952 36.9768C63.4899 36.8533 62.8953 36.6823 62.3168 36.4656C62.9303 36.5423 63.537 36.6667 64.1312 36.8376C64.7361 36.9625 65.3306 37.1334 65.9096 37.3488Z" fill="#FAFAFA"/>
<path d="M67.808 39.6313C67.808 39.6697 66.4664 39.3769 64.8344 38.9737C63.2024 38.5705 61.8872 38.2153 61.8968 38.1745C61.9064 38.1337 63.236 38.4313 64.8704 38.8321C66.5048 39.2329 67.8176 39.6001 67.808 39.6313Z" fill="#FAFAFA"/>
<path d="M67.988 41.1913C67.988 41.2297 66.5288 40.9057 64.7504 40.4713C62.972 40.0369 61.5344 39.6481 61.544 39.6073C61.5536 39.5665 63.0032 39.8929 64.784 40.3273C66.5648 40.7617 67.9976 41.1529 67.988 41.1913Z" fill="#FAFAFA"/>
<path d="M67.6568 42.5377C67.6568 42.5761 66.1976 42.2521 64.4168 41.8177C62.636 41.3833 61.2032 40.9921 61.2128 40.9537C61.2224 40.9153 62.672 41.2393 64.4528 41.6737C66.2336 42.1081 67.6664 42.4993 67.6568 42.5377Z" fill="#FAFAFA"/>
<path d="M67.3256 43.8865C67.3256 43.9249 65.8664 43.6009 64.0856 43.1665C62.3048 42.7321 60.872 42.3409 60.8816 42.3025C60.8912 42.2641 62.3408 42.5881 64.1216 43.0225C65.9024 43.4569 67.3352 43.8457 67.3256 43.8865Z" fill="#FAFAFA"/>
<path d="M66.9944 45.2329C66.9944 45.2713 65.5328 44.9473 63.7544 44.5129C61.976 44.0785 60.5384 43.6873 60.548 43.6489C60.5576 43.6105 62.0096 43.9321 63.788 44.3689C65.5664 44.8057 67.004 45.1945 66.9944 45.2329Z" fill="#FAFAFA"/>
<path d="M57.3632 39.2304C57.4457 39.337 57.5594 39.4152 57.6884 39.4543C57.8174 39.4934 57.9553 39.4915 58.0832 39.4488C58.3472 39.3816 58.58 39.228 58.8392 39.1416C59.6096 38.8848 60.4952 39.2688 61.2536 38.976C61.3592 38.9352 61.4768 38.8512 61.46 38.736C61.4432 38.6208 61.3256 38.5848 61.22 38.5584L58.6232 37.8384" fill="#FFBE9D"/>
<path d="M58.6328 37.8433C58.7305 37.8483 58.8273 37.8652 58.9208 37.8937C59.1056 37.9345 59.3696 37.9969 59.6936 38.0809L60.8336 38.3785L61.1624 38.4649C61.3018 38.4804 61.4294 38.5502 61.5176 38.6593C61.5364 38.6978 61.5437 38.7409 61.5385 38.7835C61.5334 38.8261 61.5162 38.8662 61.4888 38.8993C61.4395 38.9551 61.3779 38.9986 61.3088 39.0265C61.1851 39.0751 61.0563 39.1097 60.9248 39.1297C60.3944 39.2041 59.9072 39.1009 59.4728 39.1081C59.2691 39.1045 59.0659 39.1321 58.8704 39.1897C58.6904 39.2473 58.5272 39.3313 58.3688 39.3961C58.2459 39.4599 58.1106 39.4964 57.9722 39.503C57.8339 39.5097 57.6957 39.4863 57.5672 39.4345C57.3872 39.3385 57.356 39.2185 57.3632 39.2185C57.4287 39.2857 57.506 39.3402 57.5912 39.3793C57.7127 39.4176 57.8409 39.4299 57.9674 39.4155C58.0939 39.401 58.216 39.36 58.3256 39.2953C58.4768 39.2281 58.6376 39.1369 58.832 39.0673C59.0384 39.001 59.2537 38.967 59.4704 38.9665C59.924 38.9521 60.4112 39.0481 60.9104 38.9665C61.0294 38.95 61.1461 38.9202 61.2584 38.8777C61.3616 38.8345 61.4312 38.7553 61.3952 38.7073C61.3592 38.6593 61.2464 38.6161 61.1336 38.5849L60.8072 38.4937L59.6744 38.1625C59.3528 38.0689 59.0936 37.9873 58.916 37.9225C58.8183 37.9101 58.7228 37.8834 58.6328 37.8433Z" fill="#EB996E"/>
<path d="M17.5736 104.05L16.0424 110.124L13.46 114.578C13.4156 114.654 13.3873 114.739 13.3769 114.826C13.3664 114.914 13.374 115.002 13.3992 115.087C13.4244 115.171 13.4667 115.249 13.5234 115.317C13.5801 115.384 13.65 115.439 13.7288 115.478C13.8198 115.525 13.9206 115.55 14.0228 115.55C14.1251 115.55 14.2259 115.525 14.3168 115.478C15.4832 114.85 19.7576 112.514 19.8368 112.063C19.9376 111.542 21.8768 105.763 21.8768 105.763L17.5736 104.05Z" fill="#6869AC"/>
<g opacity="0.6">
<path d="M13.7168 115.478L19.9568 111.638L19.8848 111.895C19.8248 112.116 19.6878 112.309 19.4984 112.438C18.98 112.8 17.5568 113.71 14.324 115.474C14.2305 115.523 14.1262 115.549 14.0204 115.549C13.9145 115.549 13.8103 115.523 13.7168 115.474V115.478Z" fill="white"/>
</g>
<g opacity="0.6">
<path d="M19.2464 109.356C19.1566 109.39 19.0824 109.455 19.0381 109.54C18.9938 109.626 18.9825 109.724 19.0064 109.817C19.0367 109.907 19.1007 109.983 19.1852 110.028C19.2696 110.072 19.368 110.083 19.46 110.057C19.5509 110.019 19.6252 109.95 19.6693 109.861C19.7134 109.773 19.7243 109.672 19.7 109.577C19.658 109.486 19.5823 109.414 19.4888 109.377C19.3953 109.341 19.2912 109.342 19.1984 109.38" fill="white"/>
</g>
<path d="M15.8265 113.222C15.7346 112.993 15.5993 112.784 15.4281 112.606C15.2299 112.457 15.0062 112.347 14.7681 112.279C14.7681 112.265 14.8569 112.238 15.0081 112.258C15.1999 112.285 15.3793 112.369 15.5241 112.498C15.6689 112.625 15.7739 112.792 15.8265 112.978C15.8601 113.129 15.8433 113.22 15.8265 113.222Z" fill="#3E4551"/>
<path d="M15.1736 113.911C15.1376 113.928 14.9984 113.671 14.7104 113.503C14.5256 113.412 14.3357 113.332 14.1416 113.263C14.2507 113.232 14.3656 113.227 14.477 113.249C14.5883 113.271 14.693 113.318 14.7824 113.388C15.1088 113.59 15.2096 113.904 15.1736 113.911Z" fill="#3E4551"/>
<path d="M16.9137 112.406C16.7065 112.165 16.4819 111.939 16.2417 111.73C15.9743 111.557 15.6943 111.404 15.4041 111.274C15.7419 111.275 16.0681 111.398 16.3233 111.619C16.6075 111.803 16.8169 112.082 16.9137 112.406Z" fill="#3E4551"/>
<path d="M17.5401 110.599C17.5137 110.63 17.2185 110.4 16.7889 110.263C16.3593 110.126 15.9873 110.136 15.9849 110.095C16.2631 110.009 16.5628 110.022 16.8321 110.134C17.1156 110.201 17.3663 110.365 17.5401 110.599Z" fill="#3E4551"/>
<path d="M18.02 108.828C17.7807 108.669 17.5206 108.544 17.2472 108.456C16.9647 108.41 16.6771 108.404 16.3928 108.437C16.3928 108.422 16.472 108.365 16.6328 108.322C16.8456 108.272 17.0669 108.273 17.2793 108.324C17.4918 108.375 17.6895 108.474 17.8568 108.614C17.9888 108.72 18.0392 108.816 18.02 108.828Z" fill="#3E4551"/>
<path d="M17.3601 108.122C17.3601 108.122 17.3601 108.036 17.4153 107.882C17.4923 107.679 17.6099 107.492 17.7609 107.335C17.8622 107.214 18.0005 107.13 18.1545 107.095C18.2071 107.087 18.2611 107.095 18.3089 107.118C18.3568 107.142 18.3959 107.18 18.4209 107.227C18.4628 107.321 18.4696 107.427 18.4401 107.525C18.3708 107.724 18.234 107.893 18.0535 108.002C17.8729 108.111 17.6599 108.154 17.4513 108.122C17.2459 108.088 17.0556 107.993 16.9043 107.85C16.753 107.706 16.6477 107.522 16.6017 107.318C16.5897 107.267 16.5893 107.214 16.6005 107.162C16.6117 107.111 16.6343 107.063 16.6665 107.021C16.7011 106.98 16.7486 106.952 16.8013 106.941C16.8539 106.93 16.9087 106.937 16.9569 106.961C17.097 107.036 17.2153 107.146 17.3001 107.28C17.4269 107.457 17.5219 107.654 17.5809 107.863C17.6096 107.94 17.6218 108.022 17.6169 108.103C17.5218 107.833 17.3884 107.577 17.2209 107.345C17.1444 107.231 17.0403 107.139 16.9185 107.076C16.8923 107.063 16.8626 107.059 16.8339 107.065C16.8053 107.07 16.7793 107.085 16.7601 107.107C16.7411 107.136 16.7284 107.168 16.7231 107.202C16.7177 107.236 16.7197 107.271 16.7289 107.304C16.7735 107.478 16.8674 107.636 16.9993 107.759C17.1312 107.882 17.2956 107.964 17.4729 107.995C17.6495 108.021 17.8295 107.985 17.9834 107.895C18.1374 107.805 18.2561 107.665 18.3201 107.498C18.3455 107.431 18.3455 107.357 18.3201 107.29C18.3068 107.264 18.2858 107.243 18.26 107.229C18.2342 107.216 18.2048 107.211 18.1761 107.215C18.0447 107.248 17.9265 107.32 17.8377 107.422C17.6386 107.625 17.477 107.863 17.3601 108.122Z" fill="#3E4551"/>
<path d="M38.06 104.849L37.7216 109.951C37.7216 109.951 42.8 111.631 42.8312 112.591L32.9072 112.663L33.1064 104.69L38.06 104.849Z" fill="#6869AC"/>
<g opacity="0.6">
<path d="M34.6688 109.44C34.5721 109.466 34.4883 109.526 34.4338 109.61C34.3792 109.694 34.3578 109.795 34.3736 109.894C34.3966 109.991 34.4559 110.076 34.5393 110.13C34.6228 110.185 34.724 110.206 34.8224 110.189C34.9234 110.16 35.0105 110.096 35.0671 110.007C35.1237 109.919 35.1459 109.813 35.1296 109.709C35.0956 109.61 35.0246 109.528 34.9316 109.48C34.8386 109.432 34.7307 109.422 34.6304 109.452" fill="white"/>
</g>
<g opacity="0.6">
<path d="M32.9 112.658L32.9192 111.854L42.5048 112.121C42.6065 112.172 42.6936 112.249 42.7581 112.343C42.8227 112.436 42.8627 112.545 42.8744 112.658H32.9Z" fill="white"/>
</g>
<path d="M37.8848 109.906C37.8848 109.956 37.6448 109.97 37.4048 110.119C37.1648 110.268 37.028 110.467 36.9848 110.446C36.9416 110.424 37.0208 110.148 37.3184 109.966C37.616 109.783 37.8968 109.862 37.8848 109.906Z" fill="#3E4551"/>
<path d="M38.912 110.369C38.912 110.414 38.708 110.491 38.5376 110.69C38.3672 110.89 38.3144 111.106 38.264 111.103C38.2136 111.101 38.1944 110.825 38.4104 110.58C38.6264 110.335 38.912 110.323 38.912 110.369Z" fill="#3E4551"/>
<path d="M39.464 111.631C39.4208 111.631 39.3608 111.391 39.4928 111.134C39.6248 110.878 39.8552 110.774 39.8744 110.815C39.8936 110.856 39.7496 110.995 39.6344 111.211C39.5192 111.427 39.512 111.629 39.464 111.631Z" fill="#3E4551"/>
<path d="M37.832 108.734C37.8104 108.778 37.592 108.706 37.316 108.715C37.04 108.725 36.836 108.806 36.8024 108.763C36.7688 108.72 36.9872 108.554 37.3112 108.547C37.6352 108.54 37.856 108.698 37.832 108.734Z" fill="#3E4551"/>
<g opacity="0.3">
<path d="M37.9929 105.859L37.9329 106.769L33.0585 106.577L33.0777 105.756L37.9929 105.859Z" fill="#101723"/>
</g>
<path d="M37.8824 107.705C37.718 107.742 37.5467 107.736 37.3856 107.686C37.2065 107.651 37.0329 107.592 36.8696 107.51C36.7721 107.465 36.6782 107.412 36.5888 107.352C36.5337 107.319 36.4843 107.278 36.4424 107.23C36.4113 107.195 36.393 107.15 36.3903 107.104C36.3877 107.057 36.401 107.011 36.428 106.973C36.453 106.939 36.4856 106.912 36.5232 106.894C36.5608 106.875 36.6022 106.866 36.644 106.867C36.7068 106.869 36.769 106.88 36.8288 106.898C36.9344 106.928 37.0372 106.966 37.136 107.014C37.3001 107.096 37.4513 107.202 37.5848 107.328C37.808 107.549 37.88 107.731 37.8632 107.741C37.8464 107.75 37.7336 107.602 37.5056 107.419C37.3719 107.313 37.2251 107.224 37.0688 107.155C36.9782 107.115 36.8843 107.083 36.788 107.059C36.6824 107.028 36.5936 107.023 36.5648 107.071C36.536 107.119 36.5528 107.095 36.5648 107.126C36.5963 107.161 36.6327 107.191 36.6728 107.215C36.7555 107.273 36.8412 107.326 36.9296 107.374C37.083 107.454 37.2437 107.52 37.4096 107.57C37.5701 107.605 37.728 107.649 37.8824 107.705Z" fill="#3E4551"/>
<path d="M37.8152 107.772C37.727 107.628 37.6866 107.46 37.7 107.292C37.6958 107.108 37.7242 106.926 37.784 106.752C37.8187 106.649 37.8638 106.549 37.9184 106.454C37.948 106.39 37.9935 106.334 38.0506 106.292C38.1077 106.25 38.1745 106.223 38.2448 106.214C38.2883 106.218 38.3301 106.233 38.3656 106.258C38.4012 106.284 38.4291 106.318 38.4464 106.358C38.4704 106.418 38.4857 106.48 38.492 106.543C38.509 106.654 38.509 106.766 38.492 106.877C38.459 107.062 38.3807 107.236 38.264 107.383C38.0624 107.635 37.8584 107.688 37.856 107.671C37.8536 107.654 38.012 107.558 38.168 107.316C38.258 107.176 38.3162 107.018 38.3384 106.853C38.3516 106.757 38.3516 106.66 38.3384 106.565C38.3264 106.459 38.2904 106.373 38.2496 106.382C38.2088 106.392 38.1128 106.457 38.0696 106.541C38.0187 106.623 37.9753 106.71 37.94 106.8C37.8797 106.958 37.8417 107.124 37.8272 107.292C37.796 107.582 37.8416 107.76 37.8152 107.772Z" fill="#3E4551"/>
<path d="M38.06 60.5185L22.94 60.4033L15.6344 108.391L21.908 109.188L29.9504 69.7297L32.3576 109.327L32.3648 109.445L39.1496 109.327L38.06 60.5185Z" fill="#3E4551"/>
<path d="M30.4568 68.6976C30.4526 68.5017 30.4655 68.3057 30.4952 68.112C30.5312 67.752 30.5696 67.2552 30.5864 66.7056C30.6032 66.156 30.5864 65.6568 30.5864 65.2944C30.5701 65.0988 30.5701 64.9021 30.5864 64.7064C30.6415 64.8962 30.673 65.0921 30.68 65.2896C30.7219 65.7612 30.7355 66.2348 30.7208 66.708C30.7078 67.1814 30.6653 67.6535 30.5936 68.1216C30.572 68.3185 30.526 68.512 30.4568 68.6976Z" fill="#4E5159"/>
<path d="M31.7001 64.8456C31.7001 64.8456 31.7265 64.8168 31.7889 64.812C31.879 64.8066 31.9681 64.833 32.0409 64.8864C32.0968 64.9255 32.1428 64.9771 32.1753 65.0371C32.2078 65.0971 32.2259 65.1638 32.2281 65.232C32.2211 65.3174 32.1893 65.3989 32.1366 65.4664C32.084 65.534 32.0127 65.5846 31.9316 65.6122C31.8505 65.6397 31.7631 65.643 31.6801 65.6215C31.5972 65.6 31.5224 65.5547 31.4649 65.4912C31.4244 65.4355 31.3979 65.371 31.3874 65.3029C31.377 65.2349 31.383 65.1653 31.4049 65.1C31.4293 65.0136 31.4837 64.9387 31.5585 64.8888C31.6113 64.8576 31.6473 64.8576 31.6497 64.8624C31.6521 64.8672 31.5273 64.9344 31.4889 65.124C31.478 65.175 31.4781 65.2277 31.4893 65.2787C31.5004 65.3296 31.5224 65.3775 31.5537 65.4192C31.5959 65.4645 31.6508 65.4959 31.7113 65.5092C31.7717 65.5225 31.8348 65.5171 31.8921 65.4936C31.9515 65.4776 32.0046 65.4437 32.0441 65.3964C32.0836 65.3492 32.1076 65.291 32.1129 65.2296C32.1126 65.1776 32.1011 65.1262 32.0791 65.079C32.0572 65.0318 32.0253 64.9898 31.9857 64.956C31.903 64.8927 31.8039 64.8544 31.7001 64.8456Z" fill="#4E5159"/>
<path d="M27.8312 63.8784C27.8312 63.8784 27.7856 63.9312 27.692 64.0056C27.5574 64.1102 27.4126 64.2011 27.26 64.2768C27.0306 64.3921 26.7891 64.4815 26.54 64.5432C26.2391 64.6175 25.9307 64.657 25.6208 64.6608C25.31 64.6584 25.0006 64.6189 24.6992 64.5432C24.4499 64.482 24.2083 64.3926 23.9792 64.2768C23.827 64.2014 23.6831 64.1106 23.5496 64.0056C23.4536 63.9312 23.4056 63.888 23.4104 63.8808C23.4152 63.8736 23.6336 64.0224 24.0176 64.1976C24.2425 64.2989 24.4763 64.3793 24.716 64.4376C25.0099 64.5033 25.31 64.5379 25.6112 64.5408C25.9114 64.5353 26.2104 64.5008 26.504 64.4376C26.7437 64.3793 26.9774 64.299 27.2024 64.1976C27.6056 64.0224 27.8168 63.8592 27.8312 63.8784Z" fill="#4E5159"/>
<path d="M37.1888 64.896C37.0585 64.9528 36.918 64.9822 36.776 64.9825C36.0845 65.0319 35.3977 64.8355 34.8368 64.4281C34.6256 64.2721 34.5224 64.1473 34.532 64.1353C34.9212 64.3998 35.3452 64.609 35.792 64.7569C36.2493 64.8656 36.7191 64.9124 37.1888 64.896Z" fill="#4E5159"/>
<path d="M18.02 108.828C18.0386 108.796 18.0531 108.761 18.0632 108.725C18.0872 108.656 18.116 108.55 18.1496 108.408C18.2168 108.127 18.3056 107.71 18.416 107.17C18.632 106.092 18.9248 104.53 19.2776 102.593C19.9808 98.7216 20.9216 93.3696 21.956 87.4584C22.9904 81.5472 23.9384 76.1976 24.62 72.3168C24.9704 70.3968 25.2536 68.8224 25.4504 67.7328C25.5512 67.1976 25.628 66.7728 25.6904 66.4872C25.7168 66.3504 25.7384 66.2472 25.7552 66.1656C25.772 66.084 25.7816 66.0552 25.7816 66.0552C25.7816 66.0552 25.7816 66.0936 25.7672 66.168C25.7528 66.2424 25.7384 66.3552 25.7144 66.492C25.6664 66.7848 25.5944 67.212 25.5056 67.7424C25.3184 68.832 25.0472 70.3992 24.716 72.3336C24.0416 76.2144 23.1128 81.5664 22.076 87.48C21.0392 93.3936 20.0864 98.7432 19.3592 102.6C18.9968 104.52 18.6896 106.094 18.4568 107.16C18.224 108.226 18.0728 108.847 18.02 108.828Z" fill="#4E5159"/>
<path d="M37.2969 108.286C37.2947 108.249 37.2947 108.212 37.2969 108.175C37.2969 108.096 37.2969 107.99 37.2969 107.851C37.2969 107.558 37.2969 107.131 37.2849 106.603C37.2729 106.075 37.2849 105.403 37.2657 104.626C37.2465 103.848 37.2465 102.979 37.2201 102.01C37.1817 100.07 37.1073 97.764 36.9969 95.2032C36.8865 92.6424 36.7161 89.8272 36.4977 86.8776C36.2793 83.928 36.0177 81.1176 35.7489 78.5712C35.4801 76.0248 35.2065 73.728 34.9545 71.8056C34.8345 70.8456 34.7145 69.9744 34.6065 69.2112C34.4985 68.448 34.4121 67.7904 34.3329 67.2552C34.2537 66.72 34.1985 66.2952 34.1577 66.0192C34.1409 65.8824 34.1265 65.7792 34.1169 65.6976C34.1073 65.616 34.1049 65.5872 34.1049 65.5872C34.1049 65.5872 34.1049 65.6232 34.1289 65.6952C34.1529 65.7672 34.1601 65.8776 34.1841 66.0144C34.2297 66.3024 34.2969 66.7176 34.3809 67.248C34.4649 67.7784 34.5681 68.448 34.6761 69.2016C34.7841 69.9552 34.9161 70.8312 35.0409 71.7936C35.3049 73.7136 35.5857 76.008 35.8641 78.5568C36.1425 81.1056 36.3993 83.916 36.6225 86.868C36.8457 89.82 36.9993 92.628 37.1025 95.1984C37.2057 97.7688 37.2729 100.068 37.2993 102.007C37.3185 102.967 37.3185 103.855 37.3257 104.626C37.3329 105.396 37.3257 106.066 37.3257 106.603C37.3257 107.141 37.3257 107.563 37.3257 107.851C37.3257 107.99 37.3257 108.091 37.3257 108.175C37.3257 108.259 37.2969 108.286 37.2969 108.286Z" fill="#4E5159"/>
<path d="M37.5728 35.112C37.388 34.956 34.2608 34.5576 34.2608 34.5576C32.6192 34.5096 30.14 34.1832 28.3688 34.3728C26.4687 35.0443 24.606 35.8174 22.7888 36.6888C21.769 37.3838 21.0664 38.4549 20.8352 39.6672L23.54 54.8376L22.4 61.68C22.2224 63.2352 28.0064 63.9312 31.46 64.2072C33.0492 64.3339 34.6437 64.0418 36.0848 63.36L38.5208 62.2056C38.5258 62.2064 38.5309 62.206 38.5357 62.2045C38.5406 62.2029 38.545 62.2004 38.5487 62.1969C38.5524 62.1934 38.5553 62.1892 38.5571 62.1845C38.5589 62.1797 38.5596 62.1747 38.5592 62.1696L38.4464 54.2832L39.8744 39.192C40.0664 37.8528 38.612 35.9856 37.5728 35.112Z" fill="#6869AC"/>
<path d="M34.4624 34.9728C34.4624 34.9728 37.6808 34.7976 39.296 35.5896C40.9112 36.3816 48.0344 41.28 48.0344 41.28L55.3352 38.5752L57.9176 42.0768L51.5936 46.6848C50.8477 47.1888 49.9869 47.4969 49.0906 47.5808C48.1943 47.6647 47.2913 47.5216 46.4648 47.1648L38.2736 43.92L34.4624 34.9728Z" fill="#6869AC"/>
<path d="M39.5936 41.2416C39.6368 41.2416 39.4352 43.6416 39.1424 46.5888C38.8496 49.536 38.5808 51.9216 38.5376 51.9168C38.4944 51.912 38.696 49.5168 38.9888 46.572C39.2816 43.6272 39.5528 41.2392 39.5936 41.2416Z" fill="#3E4551"/>
<g opacity="0.3">
<path d="M22.9832 58.4184L22.7432 59.6616C24.4928 59.8776 26.1032 60.024 27.8624 60.24L35.0432 61.1232C35.6048 61.1928 36.2072 61.2552 36.7232 60.9984C37.496 60.6024 37.7456 59.6232 37.7888 58.7568C37.832 57.8904 37.772 56.964 38.2184 56.2224C33.0176 56.82 28.1264 57.5184 22.9832 58.4184Z" fill="#101723"/>
</g>
<g opacity="0.3">
<path d="M25.8632 52.4545C26.5526 49.59 27.4782 46.7877 28.6304 44.076C28.3325 47.0346 27.8028 49.9652 27.0464 52.8409" fill="#101723"/>
</g>
<path d="M25.6808 40.6969C25.436 40.158 25.1026 39.6639 24.6944 39.2353C24.2593 38.8353 23.7604 38.5108 23.2184 38.2753C23.3955 38.2936 23.5674 38.3458 23.7248 38.4289C24.1183 38.6027 24.4769 38.8467 24.7832 39.1489C25.0891 39.4511 25.3386 39.8054 25.52 40.1953C25.604 40.3512 25.6585 40.5212 25.6808 40.6969Z" fill="#3E4551"/>
<path d="M39.6201 38.6784C39.5139 38.2666 39.448 37.8454 39.4233 37.4208C39.3567 36.9995 39.3317 36.5726 39.3489 36.1464C39.4546 36.5592 39.5205 36.9811 39.5457 37.4064C39.6122 37.8269 39.6371 38.253 39.6201 38.6784Z" fill="#3E4551"/>
<path d="M48.4569 44.724C48.3532 44.5822 48.2722 44.4251 48.2169 44.2584C48.0599 43.8636 47.9566 43.4495 47.9097 43.0272C47.8633 42.6044 47.8754 42.1772 47.9457 41.7576C47.9627 41.5821 48.0098 41.4108 48.0849 41.2512C48.0083 41.8352 47.9914 42.4254 48.0345 43.0128C48.1189 43.5957 48.2604 44.1688 48.4569 44.724Z" fill="#3E4551"/>
<g opacity="0.3">
<path d="M48.02 41.3304C47.7176 41.5944 47.6528 42.0312 47.6288 42.432C47.5948 43.0291 47.6101 43.6279 47.6744 44.2224C47.6927 44.5503 47.7794 44.8708 47.9288 45.1632C47.9541 45.2192 47.9905 45.2693 48.0359 45.3106C48.0813 45.3519 48.1347 45.3834 48.1928 45.4032C48.4016 45.4512 48.5888 45.2256 48.5936 45.012C48.577 44.7985 48.5078 44.5923 48.392 44.412C47.9445 43.5179 47.8134 42.4984 48.02 41.52" fill="#101723"/>
</g>
<path d="M37.7793 35.4193C37.7777 35.4755 37.7729 35.5316 37.7649 35.5872C37.7529 35.6976 37.7385 35.8608 37.7049 36.0672C37.6125 36.6654 37.4818 37.257 37.3137 37.8385C36.7456 39.8215 35.7777 41.6674 34.4697 43.2624L34.4409 43.2985L34.4001 43.2793C33.8025 43.0177 33.1857 42.7392 32.5689 42.4296C30.3216 41.3093 28.1966 39.9589 26.2281 38.4001C25.4721 37.8025 24.8913 37.2841 24.4905 36.9241L24.0393 36.4993L23.9241 36.3865C23.9106 36.3733 23.8985 36.3588 23.8881 36.3432C23.9045 36.3526 23.9198 36.3639 23.9337 36.3769L24.0561 36.4801C24.1713 36.5809 24.3273 36.72 24.5217 36.888C24.9321 37.236 25.5225 37.7424 26.2809 38.328C28.2598 39.8605 30.3844 41.1949 32.6241 42.3121C33.2385 42.6217 33.8553 42.9 34.4481 43.1616L34.3761 43.1785C35.6756 41.5968 36.6481 39.7727 37.2369 37.8121C37.4103 37.2354 37.5521 36.6497 37.6617 36.0577C37.7025 35.8489 37.7217 35.6857 37.7433 35.5777C37.7497 35.5237 37.7618 35.4706 37.7793 35.4193Z" fill="#FAFAFA"/>
<path d="M36.6488 35.2944C36.6433 35.3398 36.6344 35.3847 36.6224 35.4288C36.5984 35.5152 36.5696 35.6448 36.5216 35.808C36.4304 36.1368 36.2816 36.612 36.0752 37.1952C35.5185 38.7448 34.8001 40.2313 33.9321 41.6304L33.8985 41.6856L33.8457 41.6496L32.7009 40.8648L27.8721 37.5288L26.4201 36.5064L26.0289 36.2232C25.9809 36.1933 25.9366 36.1579 25.8969 36.1176C25.948 36.1422 25.997 36.1711 26.0433 36.204L26.4489 36.468L27.9248 37.4568L32.7729 40.7616L33.9177 41.5488L33.8288 41.5656C34.6951 40.1735 35.4234 38.7001 36.0032 37.1664C36.2192 36.5904 36.3776 36.12 36.4832 35.796L36.6032 35.424C36.613 35.3791 36.6284 35.3356 36.6488 35.2944Z" fill="#FAFAFA"/>
<path d="M54.3656 44.4793C54.2967 44.4617 54.2316 44.4316 54.1736 44.3905C54.0086 44.2933 53.8549 44.1782 53.7152 44.0473C53.2582 43.6059 52.9098 43.0645 52.6976 42.4657C52.491 41.8724 52.354 41.257 52.2896 40.6321C52.2472 40.3759 52.2287 40.1164 52.2344 39.8569C52.3019 40.1064 52.35 40.3608 52.3784 40.6177C52.4665 41.2318 52.6128 41.8361 52.8152 42.4225C53.0222 43.0048 53.3492 43.5371 53.7752 43.9849C54.1112 44.3209 54.3776 44.4601 54.3656 44.4793Z" fill="#FAFAFA"/>
<path d="M55.6281 43.7976C55.5736 43.7594 55.525 43.7133 55.4841 43.6608C55.3953 43.5672 55.2753 43.4208 55.1337 43.2456C54.7679 42.7722 54.4465 42.2661 54.1737 41.7336C53.9002 41.2017 53.6784 40.6447 53.5113 40.0704C53.4465 39.852 53.4033 39.672 53.3793 39.5448C53.3581 39.4815 53.3492 39.4147 53.3529 39.348C53.4451 39.5756 53.5252 39.808 53.5929 40.044C53.784 40.6035 54.0142 41.1488 54.2817 41.676C54.5533 42.2019 54.8604 42.7087 55.2009 43.1928C55.356 43.3851 55.4987 43.5871 55.6281 43.7976Z" fill="#FAFAFA"/>
<path d="M38.588 60.96C38.5426 60.993 38.4944 61.0219 38.444 61.0464L38.0192 61.2696L37.7 61.44C37.5872 61.4952 37.46 61.5456 37.3232 61.6056C37.0496 61.7208 36.7424 61.8672 36.3872 61.9824L35.8328 62.1768C35.6408 62.244 35.4344 62.292 35.2232 62.3544C34.8032 62.484 34.34 62.5728 33.8576 62.676C32.802 62.8676 31.7312 62.964 30.6584 62.964C29.585 62.9475 28.5152 62.8359 27.4616 62.6304C26.9816 62.52 26.5184 62.4264 26.1008 62.2896C25.8896 62.2248 25.6832 62.172 25.4912 62.1024L24.9416 61.9008C24.5864 61.7808 24.284 61.6296 24.0128 61.512C23.876 61.4496 23.7488 61.3968 23.636 61.3392L23.3288 61.176L22.9088 60.936C22.8583 60.9115 22.8102 60.8826 22.7648 60.8496C22.8188 60.8658 22.8711 60.8875 22.9208 60.9144L23.3504 61.1256L23.6624 61.2792C23.7776 61.332 23.9024 61.3824 24.0392 61.44C24.3128 61.5528 24.6176 61.6968 24.9728 61.8096L25.5224 62.004C25.7144 62.0712 25.9184 62.1216 26.1296 62.1816C26.5448 62.3136 27.0056 62.4048 27.4832 62.5104C28.5305 62.708 29.5927 62.8156 30.6584 62.832C31.7235 62.8297 32.7864 62.7374 33.836 62.556C34.316 62.4552 34.7768 62.3736 35.1968 62.2464C35.4056 62.1888 35.612 62.1408 35.804 62.0784L36.3584 61.8912C36.7136 61.7832 37.0208 61.6512 37.2944 61.5336C37.4312 61.4784 37.5608 61.4304 37.676 61.3776L37.988 61.2288L38.4224 61.0248C38.4746 60.9962 38.5302 60.9745 38.588 60.96Z" fill="#FAFAFA"/>
<path d="M36.0896 60.036L26.2112 57.5808C26.0971 57.5525 25.9898 57.5019 25.8952 57.432C25.8006 57.3622 25.7208 57.2744 25.6602 57.1736C25.5995 57.0729 25.5594 56.9612 25.5419 56.8449C25.5244 56.7287 25.5301 56.6101 25.5584 56.496L28.868 43.1856C28.8961 43.0714 28.9465 42.9638 29.0163 42.8691C29.0861 42.7743 29.1739 42.6944 29.2747 42.6337C29.3755 42.573 29.4873 42.5329 29.6037 42.5156C29.7201 42.4983 29.8387 42.5041 29.9528 42.5328L36.86 44.2512L39.7688 48.9432L37.1744 59.3832C37.1461 59.4973 37.0955 59.6047 37.0257 59.6993C36.9558 59.7938 36.868 59.8737 36.7673 59.9343C36.6665 59.9949 36.5548 60.0351 36.4386 60.0526C36.3223 60.07 36.2037 60.0644 36.0896 60.036Z" fill="#4E5159"/>
<path d="M36.8673 44.2177L36.2097 46.8577C36.1706 47.0132 36.1626 47.1749 36.1863 47.3336C36.2099 47.4922 36.2647 47.6446 36.3474 47.782C36.4302 47.9194 36.5393 48.0391 36.6684 48.1342C36.7976 48.2293 36.9443 48.2979 37.1001 48.336L39.7689 48.9385L36.8673 44.2177Z" fill="#3E4551"/>
<path d="M35.2592 57.0384C35.2592 57.0384 35.2592 56.9928 35.2856 56.9112C35.312 56.8296 35.3312 56.7072 35.3672 56.5584L35.6816 55.2336C35.9576 54.0936 36.3488 52.4784 36.8192 50.5416L36.8576 50.6088L30.1184 48.9432L30.1952 48.8976V48.912V48.9384V48.9936L30.1664 49.104L30.1112 49.3248C30.0752 49.4736 30.0392 49.6176 30.0032 49.764C29.9312 50.0544 29.8592 50.3448 29.7872 50.6304C29.6448 51.2016 29.5056 51.7616 29.3696 52.3104C29.096 53.3976 28.8392 54.4248 28.6016 55.3728L28.5608 55.3032L33.4208 56.5416L34.7936 56.8968L35.1584 56.9952L35.2856 57.0336C35.2458 57.0289 35.2065 57.0209 35.168 57.0096L34.8104 56.928L33.4424 56.604L28.5344 55.404L28.4792 55.3896L28.4936 55.3344C28.7336 54.3888 28.9736 53.3592 29.2472 52.272C29.384 51.7272 29.5208 51.168 29.6624 50.592C29.7344 50.3064 29.8064 50.016 29.8784 49.7256L29.9864 49.2864L30.0416 49.0656L30.0704 48.9552L30.0824 48.9V48.8736V48.8592L30.1616 48.8112L36.8984 50.4912L36.9512 50.5056L36.9368 50.5608C36.4424 52.5048 36.0296 54.1248 35.7368 55.272C35.5928 55.8264 35.4776 56.268 35.3984 56.5776C35.36 56.7192 35.3288 56.832 35.3072 56.9184C35.2956 56.96 35.2795 57.0003 35.2592 57.0384Z" fill="white"/>
<path d="M31.808 56.2609C31.772 56.2609 32.1056 54.7945 32.5496 53.0041C32.9936 51.2137 33.3848 49.7713 33.4184 49.7785C33.452 49.7857 33.1208 51.2449 32.6768 53.0353C32.2328 54.8257 31.8416 56.2705 31.808 56.2609Z" fill="white"/>
<path d="M35.6288 55.4401C35.6288 55.4761 34.1 55.1281 32.2328 54.6625C30.3656 54.1969 28.856 53.7937 28.8728 53.7577C28.8896 53.7217 30.4016 54.0721 32.2712 54.5377C34.1408 55.0033 35.6384 55.4089 35.6288 55.4401Z" fill="white"/>
<path d="M36.1184 53.8104C36.1184 53.844 34.5872 53.496 32.72 53.0304C30.8528 52.5648 29.3432 52.1616 29.36 52.128C29.3768 52.0944 30.8888 52.4424 32.7584 52.9056C34.628 53.3688 36.1256 53.7744 36.1184 53.8104Z" fill="white"/>
<path d="M36.476 52.1448C36.476 52.1784 34.9592 51.8328 33.104 51.372C31.2488 50.9112 29.756 50.5104 29.7632 50.4744C29.7704 50.4384 31.2824 50.7864 33.1232 51.2472C34.964 51.708 36.4856 52.1088 36.476 52.1448Z" fill="white"/>
<path d="M31.148 54.0168L32.828 53.832C32.828 53.832 33.524 52.6776 33.98 52.2744C34.436 51.8712 36.7976 50.7432 36.7976 50.7432C36.8938 50.8598 36.9464 51.0061 36.9464 51.1572C36.9464 51.3083 36.8938 51.4547 36.7976 51.5712C36.6416 51.7584 35.5256 52.3848 35.5256 52.3848C35.4953 52.4902 35.4924 52.6016 35.5172 52.7085C35.5419 52.8153 35.5934 52.9141 35.6669 52.9955C35.7404 53.0769 35.8334 53.1383 35.9372 53.1738C36.0409 53.2093 36.152 53.2178 36.26 53.1984C36.9512 53.0712 37.7576 52.9272 37.8632 52.9272C37.9688 52.9272 38.672 52.2744 39.1784 51.78C39.2443 51.7162 39.3288 51.6752 39.4196 51.6629C39.5105 51.6506 39.6029 51.6677 39.6834 51.7116C39.7638 51.7556 39.8281 51.8242 39.8668 51.9073C39.9055 51.9904 39.9165 52.0838 39.8984 52.1736C39.8887 52.2124 39.8678 52.2474 39.8384 52.2744C39.8384 52.2744 40.5584 52.2504 39.9176 53.2344C39.9176 53.2344 40.0664 54.1368 39.5336 54.552C39.5336 54.552 39.2936 55.644 38.96 56.0208C38.6264 56.3976 35.2856 57.12 35.2856 57.12L30.4856 57.7008L31.148 54.0168Z" fill="#FFBE9D"/>
<path d="M36.5696 54.24C36.7679 54.2732 36.9699 54.2781 37.1696 54.2544C37.6609 54.2437 38.1428 54.1171 38.576 53.8848C38.9881 53.6133 39.3256 53.2428 39.5576 52.8072C39.6693 52.6403 39.7551 52.4575 39.812 52.2648C39.6803 52.4128 39.5637 52.5736 39.464 52.7448C39.2205 53.1442 38.8929 53.4858 38.504 53.7456C38.088 53.9641 37.6328 54.0978 37.1648 54.1392C36.963 54.1487 36.7632 54.1826 36.5696 54.24Z" fill="#EB996E"/>
<path d="M36.9152 55.0104C37.0913 55.0692 37.2792 55.084 37.4624 55.0536C37.661 55.0388 37.8582 55.0099 38.0528 54.9672C38.2989 54.9208 38.5331 54.8253 38.7416 54.6864C38.932 54.5302 39.1042 54.3531 39.2552 54.1584L39.6224 53.7C39.748 53.5667 39.8531 53.4154 39.9344 53.2512C39.7866 53.3583 39.6542 53.4851 39.5408 53.628C39.4256 53.7504 39.3008 53.8992 39.1472 54.0672C38.9973 54.2479 38.8301 54.4135 38.648 54.5616C38.4561 54.6892 38.242 54.7796 38.0168 54.828C37.8303 54.877 37.6412 54.9154 37.4504 54.9432C37.1216 54.996 36.9176 54.9888 36.9152 55.0104Z" fill="#EB996E"/>
<path d="M37.3856 55.8721C37.3856 55.9345 37.9928 55.8073 38.7008 55.6105C38.7987 55.5805 38.8877 55.5269 38.96 55.4545C39.0272 55.3921 39.0872 55.3296 39.1424 55.2696C39.2381 55.16 39.3248 55.0428 39.4016 54.9193C39.5312 54.7057 39.5672 54.5521 39.548 54.5473C39.5288 54.5425 39.4568 54.6697 39.308 54.8569C39.2237 54.9675 39.1323 55.0725 39.0344 55.1713C38.9796 55.2308 38.9211 55.287 38.8592 55.3393C38.8036 55.3954 38.7353 55.4374 38.66 55.4616C38.3 55.5576 37.9832 55.6585 37.7528 55.7329C37.6256 55.7653 37.5024 55.812 37.3856 55.8721Z" fill="#EB996E"/>
<path d="M24.3056 51.9504L25.8392 43.6584C25.856 43.524 24.9416 39.8952 20.876 39.4896L19.0424 45.7296C18.5624 47.6952 17.8424 50.4384 17.5376 54.0144C17.3432 56.2368 19.4792 58.2888 21.9752 58.6344L22.076 58.6488C26.348 59.172 30.476 58.488 31.0304 58.3392L31.6304 53.8056C31.6808 53.8224 24.3056 51.9504 24.3056 51.9504Z" fill="#6869AC"/>
<path d="M20.2953 52.8001C20.2894 52.7659 20.2894 52.731 20.2953 52.6969C20.3143 52.5995 20.3416 52.504 20.3769 52.4113C20.5047 52.0611 20.7136 51.7461 20.9865 51.4921C21.4014 51.0952 21.9486 50.8661 22.5225 50.8488C22.8827 50.8376 23.2411 50.9051 23.5727 51.0464C23.9043 51.1877 24.2011 51.3996 24.4425 51.6673L24.3369 51.6985C24.4113 51.2017 24.4905 50.6761 24.5769 50.1385C24.8673 48.2785 25.1313 46.5961 25.3257 45.3577C25.4241 44.7577 25.5057 44.2681 25.5657 43.9177C25.5945 43.7569 25.6185 43.6273 25.6377 43.5241C25.6426 43.4779 25.6539 43.4327 25.6713 43.3896C25.675 43.436 25.675 43.4825 25.6713 43.5288C25.6713 43.632 25.6425 43.7689 25.6233 43.9249C25.5729 44.2849 25.5057 44.7769 25.4217 45.3769C25.2369 46.6177 24.9873 48.3024 24.7017 50.1624L24.4617 51.7249L24.4425 51.8545L24.3561 51.756C24.1275 51.5014 23.8472 51.2986 23.5338 51.1611C23.2205 51.0237 22.8814 50.9549 22.5393 50.9593C21.988 50.9721 21.4602 51.1844 21.0537 51.5569C20.7837 51.8003 20.5706 52.1002 20.4297 52.4352C20.3289 52.6536 20.3049 52.8001 20.2953 52.8001Z" fill="#3E4551"/>
<path d="M24.44 51.84C24.4856 51.8489 24.5305 51.8609 24.5744 51.876L24.9656 51.996C25.304 52.1016 25.8032 52.2528 26.4344 52.4328C27.6992 52.7904 29.5064 53.2512 31.6448 53.7432L31.6952 53.7552V53.8056C31.5296 55.2048 31.3448 56.7432 31.1504 58.3656V58.4136H31.1024L30.8024 58.4592C29.212 58.6932 27.6092 58.8326 26.0024 58.8768C24.6918 58.9448 23.3777 58.8861 22.0784 58.7016C21.1959 58.5705 20.3543 58.2424 19.616 57.7416C19.5021 57.661 19.3931 57.5736 19.2896 57.48C19.2116 57.4143 19.1379 57.3438 19.0688 57.2688L18.944 57.1296C18.9152 57.0984 18.9032 57.0816 18.9056 57.0792L18.9536 57.1224L19.088 57.252C19.1587 57.3233 19.2341 57.3898 19.3136 57.4512C19.4185 57.5386 19.5291 57.6188 19.6448 57.6912C20.385 58.1766 21.2234 58.4921 22.1 58.6152C23.1992 58.8024 24.5312 58.8024 26.0072 58.7616C27.6068 58.7101 29.2022 58.5675 30.7856 58.3344L31.0832 58.2888L31.0328 58.344L31.5872 53.784L31.6304 53.8464C29.492 53.3472 27.6872 52.8696 26.4272 52.4928C25.796 52.3032 25.3016 52.1424 24.9656 52.0128C24.7952 51.9552 24.668 51.9072 24.5816 51.876C24.5334 51.8683 24.486 51.8562 24.44 51.84Z" fill="#3E4551"/>
<g opacity="0.3">
<path d="M24.4088 51.6456C24.2407 51.5823 24.0603 51.5582 23.8814 51.5753C23.7025 51.5923 23.5299 51.6501 23.3768 51.744C23.0144 51.9307 22.6965 52.1932 22.4447 52.5137C22.1929 52.8343 22.0131 53.2054 21.9176 53.6016C21.8706 53.7664 21.864 53.9402 21.8984 54.108C21.9161 54.192 21.9559 54.2696 22.0137 54.3329C22.0715 54.3962 22.1453 54.4429 22.2272 54.468C22.3314 54.4829 22.4377 54.4662 22.5322 54.4199C22.6268 54.3737 22.7053 54.3002 22.7576 54.2088C22.8604 54.0251 22.9348 53.8268 22.9784 53.6208C23.2191 52.8382 23.7194 52.1609 24.3968 51.7008" fill="#101723"/>
</g>
<path d="M27.38 58.6009C27.3442 58.5321 27.3183 58.4585 27.3032 58.3825C27.247 58.1819 27.2021 57.9784 27.1688 57.7729C26.9371 56.3997 27.0831 54.9894 27.5912 53.6929C27.6655 53.4976 27.7513 53.3068 27.848 53.1217C27.8786 53.0508 27.919 52.9845 27.968 52.9249C27.9872 52.9249 27.8456 53.2273 27.6728 53.7217C27.222 55.0133 27.079 56.3923 27.2552 57.7489C27.32 58.2793 27.3992 58.5961 27.38 58.6009Z" fill="#FAFAFA"/>
<path d="M29.0312 58.6273C29.0312 58.6273 28.9424 58.6273 28.8464 58.5001C28.7339 58.3244 28.6732 58.1206 28.6712 57.9121C28.615 57.2484 28.615 56.5813 28.6712 55.9177C28.7219 55.2535 28.8303 54.595 28.9952 53.9497C29.06 53.7097 29.12 53.5057 29.1656 53.3713C29.1833 53.2983 29.2124 53.2286 29.252 53.1649C29.2688 53.1649 29.1872 53.4745 29.0816 53.9713C28.8059 55.264 28.7002 56.5872 28.7672 57.9073C28.7597 58.1031 28.8035 58.2976 28.8944 58.4713C28.9592 58.5889 29.0384 58.6177 29.0312 58.6273Z" fill="#FAFAFA"/>
<path d="M28.0568 25.2768L28.3832 34.7712C28.4095 35.549 28.7436 36.2845 29.312 36.816C29.8805 37.3475 30.6367 37.6315 31.4144 37.6056C32.1625 37.5814 32.8731 37.2727 33.4012 36.7424C33.9293 36.212 34.235 35.5001 34.256 34.752C34.28 33.9024 34.2968 33.192 34.2968 33.192C34.2968 33.192 36.6608 32.94 36.8 30.5952C36.8672 29.4648 36.8192 27.1272 36.7472 25.0104C36.7099 23.8701 36.2304 22.789 35.4103 21.9958C34.5902 21.2026 33.4938 20.7594 32.3528 20.76C31.7718 20.7666 31.198 20.8896 30.6652 21.1217C30.1325 21.3539 29.6517 21.6904 29.2513 22.1114C28.8508 22.5325 28.5388 23.0295 28.3336 23.5732C28.1285 24.1169 28.0344 24.6962 28.0568 25.2768Z" fill="#FFBE9D"/>
<path d="M34.2993 33.1992C33.2151 33.1682 32.1648 32.8148 31.2825 32.184C31.2825 32.184 31.9257 33.9072 34.2753 33.8064L34.2993 33.1992Z" fill="#EB996E"/>
<path d="M35.9769 26.64C35.9737 26.7272 35.9366 26.8097 35.8733 26.8698C35.81 26.93 35.7257 26.9629 35.6385 26.9616C35.5948 26.9642 35.551 26.9578 35.5098 26.9428C35.4687 26.9278 35.4311 26.9045 35.3994 26.8743C35.3676 26.8442 35.3424 26.8078 35.3253 26.7675C35.3083 26.7272 35.2997 26.6838 35.3001 26.64C35.3032 26.5526 35.3403 26.4698 35.4035 26.4093C35.4667 26.3488 35.551 26.3153 35.6385 26.316C35.6823 26.3137 35.7261 26.3204 35.7673 26.3357C35.8084 26.351 35.846 26.3745 35.8777 26.4049C35.9094 26.4352 35.9345 26.4717 35.9516 26.5122C35.9687 26.5526 35.9773 26.5961 35.9769 26.64Z" fill="#3E4551"/>
<path d="M36.1857 26.16C36.1425 26.2008 35.8977 26.0016 35.5377 25.9848C35.1777 25.968 34.9041 26.136 34.8657 26.0904C34.8273 26.0448 34.8945 25.992 35.0145 25.9152C35.1746 25.8135 35.3627 25.7647 35.5521 25.776C35.7398 25.7834 35.9201 25.8516 36.0657 25.9704C36.1737 26.0616 36.2073 26.1432 36.1857 26.16Z" fill="#3E4551"/>
<path d="M32.5616 26.64C32.5579 26.7277 32.5203 26.8104 32.4567 26.8709C32.3931 26.9313 32.3086 26.9647 32.2208 26.964C32.178 26.9653 32.1354 26.958 32.0954 26.9426C32.0554 26.9271 32.0189 26.9039 31.9881 26.8741C31.9572 26.8444 31.9326 26.8088 31.9157 26.7694C31.8988 26.73 31.8899 26.6877 31.8896 26.6448C31.8928 26.5574 31.9299 26.4746 31.9931 26.4141C32.0563 26.3536 32.1406 26.3201 32.228 26.3208C32.271 26.3195 32.3138 26.3268 32.3539 26.3422C32.394 26.3576 32.4306 26.3809 32.4617 26.4106C32.4927 26.4403 32.5176 26.4759 32.5347 26.5153C32.5519 26.5546 32.561 26.5971 32.5616 26.64Z" fill="#3E4551"/>
<path d="M32.6384 26.0616C32.5952 26.1024 32.3504 25.9032 31.9904 25.8864C31.6304 25.8696 31.3568 26.0376 31.3184 25.992C31.28 25.9464 31.3472 25.896 31.4648 25.8168C31.626 25.7155 31.8148 25.6668 32.0048 25.6776C32.1926 25.685 32.3729 25.7532 32.5184 25.872C32.6264 25.9608 32.66 26.0424 32.6384 26.0616Z" fill="#3E4551"/>
<path d="M33.8216 28.8001C34.014 28.7473 34.2126 28.7207 34.4121 28.7209C34.5033 28.7209 34.5921 28.7017 34.6113 28.6393C34.6223 28.5443 34.6048 28.4482 34.5608 28.3633C34.4872 28.1377 34.4072 27.8977 34.3208 27.6433C33.9896 26.6281 33.7544 25.7929 33.7952 25.7809C33.836 25.7689 34.1384 26.5801 34.4696 27.5953L34.6952 28.3153C34.7495 28.4291 34.7605 28.5587 34.7264 28.6801C34.7112 28.7113 34.6894 28.7389 34.6624 28.7608C34.6355 28.7828 34.6041 28.7987 34.5705 28.8073C34.5184 28.8186 34.4652 28.8234 34.4121 28.8217C34.2151 28.8384 34.0169 28.8311 33.8216 28.8001Z" fill="#3E4551"/>
<path d="M32.7488 28.9968C32.8064 28.9968 32.7896 29.388 33.1112 29.6808C33.4328 29.9736 33.86 29.952 33.86 30C33.86 30.048 33.764 30.072 33.5888 30.0696C33.3606 30.0646 33.1415 29.9797 32.9696 29.8296C32.8058 29.6816 32.7052 29.4762 32.6888 29.256C32.672 29.088 32.72 28.992 32.7488 28.9968Z" fill="#3E4551"/>
<path d="M32.7992 24.6528C32.7584 24.7488 32.4008 24.6864 31.976 24.7152C31.5512 24.744 31.2008 24.8472 31.1504 24.756C31.1264 24.7128 31.1912 24.624 31.3328 24.5352C31.5217 24.4255 31.7339 24.3621 31.952 24.3504C32.1694 24.334 32.3876 24.3702 32.588 24.456C32.7416 24.5256 32.816 24.6072 32.7992 24.6528Z" fill="#3E4551"/>
<path d="M36.1016 25.1112C36.0344 25.1904 35.792 25.0944 35.492 25.0752C35.192 25.056 34.9376 25.104 34.8848 25.0152C34.8608 24.9744 34.904 24.8928 35.0192 24.8208C35.1707 24.7324 35.3462 24.6938 35.5208 24.7104C35.6963 24.7217 35.8641 24.7871 36.0008 24.8976C36.1016 24.9864 36.1328 25.0728 36.1016 25.1112Z" fill="#3E4551"/>
<path d="M30.7232 22.8624H30.7112C30.323 23.1394 30.0565 23.5555 29.9672 24.024V24.072C29.8424 24.7368 29.828 25.4184 29.6984 26.0808C29.6015 26.7562 29.2813 27.3797 28.7888 27.852C28.5752 28.032 28.2104 28.1448 28.0544 27.9144C28.0014 27.8202 27.9772 27.7126 27.9848 27.6048C27.9368 25.9824 27.5624 24.528 27.644 22.8384C27.6552 22.6119 27.7197 22.3912 27.8323 22.1944C27.9449 21.9975 28.1025 21.83 28.292 21.7056C28.6568 21.4656 29.1008 21.2256 29.492 21.432C29.8832 21.6384 30.3512 22.392 30.6416 22.7232" fill="#3E4551"/>
<path d="M28.796 26.4145C28.7552 26.3953 27.2048 25.8625 27.1808 27.4681C27.1568 29.0737 28.7744 28.7689 28.7768 28.7209C28.7792 28.6729 28.796 26.4145 28.796 26.4145Z" fill="#FFBE9D"/>
<path d="M28.2968 28.1064C28.2968 28.1064 28.268 28.1256 28.22 28.1448C28.153 28.1719 28.0781 28.1719 28.0112 28.1448C27.9086 28.0774 27.8258 27.9837 27.7714 27.8737C27.717 27.7636 27.6929 27.641 27.7016 27.5185C27.6985 27.3802 27.7272 27.243 27.7856 27.1176C27.8015 27.0678 27.8292 27.0226 27.8664 26.9858C27.9036 26.949 27.9492 26.9218 27.9992 26.9064C28.0313 26.8989 28.0651 26.9027 28.0948 26.9171C28.1245 26.9315 28.1484 26.9557 28.1624 26.9857C28.184 27.0313 28.1624 27.0624 28.1816 27.0672C28.2008 27.072 28.2152 27.0408 28.2032 26.9736C28.1954 26.9342 28.1742 26.8986 28.1432 26.8729C28.1219 26.8555 28.0973 26.8426 28.0709 26.8352C28.0445 26.8278 28.0168 26.8259 27.9896 26.8296C27.9235 26.8406 27.8614 26.8685 27.8092 26.9105C27.7571 26.9526 27.7167 27.0074 27.692 27.0696C27.6219 27.207 27.5865 27.3594 27.5888 27.5136C27.5775 27.6566 27.6091 27.7997 27.6797 27.9246C27.7503 28.0494 27.8565 28.1504 27.9848 28.2144C28.0277 28.228 28.0731 28.2317 28.1176 28.225C28.1621 28.2183 28.2045 28.2016 28.2416 28.1761C28.292 28.1449 28.3016 28.1088 28.2968 28.1064Z" fill="#EB996E"/>
<path d="M29.2352 21.9336C28.7744 21.3384 29.7512 20.304 30.512 19.968C31.2728 19.632 32.3528 19.9056 33.152 20.0808C33.6656 20.1888 34.184 20.364 34.7024 20.2872C35.0469 20.2136 35.3786 20.0891 35.6864 19.9176C35.9949 19.7476 36.3344 19.6415 36.6848 19.6056C36.8606 19.5896 37.0373 19.6224 37.1957 19.7003C37.354 19.7782 37.4878 19.8982 37.5824 20.0472C37.6241 20.1232 37.6491 20.2072 37.6557 20.2936C37.6623 20.3801 37.6502 20.4669 37.6205 20.5483C37.5907 20.6297 37.5438 20.7038 37.483 20.7655C37.4222 20.8273 37.3489 20.8754 37.268 20.9064C37.3727 20.8369 37.4926 20.7934 37.6176 20.7797C37.7425 20.766 37.869 20.7824 37.9863 20.8276C38.1036 20.8727 38.2084 20.9453 38.2919 21.0393C38.3754 21.1333 38.4352 21.2459 38.4663 21.3677C38.4973 21.4895 38.4988 21.617 38.4705 21.7395C38.4422 21.862 38.3849 21.9759 38.3036 22.0717C38.2222 22.1676 38.119 22.2425 38.0028 22.2903C37.8865 22.3381 37.7604 22.3573 37.6352 22.3464C37.844 22.1496 38.2232 22.3968 38.2256 22.6824C38.21 22.8253 38.1575 22.9617 38.0734 23.0782C37.9892 23.1948 37.8763 23.2874 37.7456 23.3472C37.112 23.712 36.3272 23.7024 35.612 23.5464C34.8968 23.3904 34.2176 23.0976 33.5096 22.9248C32.8016 22.752 31.604 22.428 30.9464 22.7448C30.4664 22.9848 30.176 23.6232 29.876 23.52C29.7335 23.4612 29.607 23.3694 29.5068 23.2522C29.4067 23.1349 29.3358 22.9956 29.3 22.8456C29.2275 22.5474 29.204 22.2394 29.2304 21.9336" fill="#3E4551"/>
<path d="M37.196 21.0217C37.196 21.0217 37.2248 21.0361 37.2752 21.0721C37.349 21.1246 37.4064 21.197 37.4408 21.2809C37.5033 21.4338 37.5087 21.6041 37.4558 21.7606C37.4029 21.9171 37.2953 22.0493 37.1528 22.1329C36.9554 22.2514 36.7302 22.316 36.5 22.3201C36.2357 22.3225 35.9727 22.2844 35.72 22.2073C35.1456 22.0045 34.5964 21.7363 34.0832 21.4081C33.5627 21.0771 32.982 20.852 32.3744 20.7457C32.1057 20.7111 31.833 20.7274 31.5704 20.7937C31.3433 20.8559 31.1288 20.9574 30.9368 21.0937C30.6602 21.2846 30.4351 21.541 30.2816 21.8401C30.2252 21.95 30.184 22.0671 30.1592 22.1881C30.1592 22.1881 30.1976 22.0609 30.3056 21.8521C30.4637 21.5587 30.6901 21.3076 30.9656 21.1201C31.154 20.9889 31.3646 20.8929 31.5872 20.8369C31.843 20.7736 32.1084 20.759 32.3696 20.7937C32.9668 20.9036 33.5372 21.1277 34.0496 21.4537C34.5656 21.7858 35.1201 22.0542 35.7008 22.2529C35.9588 22.3317 36.2278 22.369 36.4976 22.3633C36.7361 22.3596 36.9695 22.2934 37.1744 22.1713C37.2606 22.1126 37.3361 22.0395 37.3976 21.9553C37.4513 21.8792 37.4881 21.7924 37.5056 21.7009C37.5363 21.5547 37.5195 21.4025 37.4576 21.2665C37.4193 21.1808 37.3567 21.1082 37.2776 21.0577C37.2522 21.042 37.2247 21.0299 37.196 21.0217Z" fill="#4E5159"/>
<path d="M31.5176 20.2104C31.5176 20.2104 31.4816 20.2104 31.4144 20.2104C31.3199 20.2161 31.2264 20.233 31.136 20.2608C30.8306 20.3461 30.5583 20.522 30.3551 20.7655C30.152 21.0089 30.0276 21.3083 29.9984 21.624C29.9872 21.7181 29.9872 21.8132 29.9984 21.9072C29.9984 21.9428 30.0057 21.9779 30.02 22.0104C30.02 22.0104 30.02 21.8617 30.044 21.6289C30.0843 21.3264 30.2094 21.0415 30.4047 20.8071C30.6001 20.5726 30.8577 20.3983 31.148 20.304C31.3712 20.2272 31.52 20.2224 31.5176 20.2104Z" fill="#4E5159"/>
<path d="M27.6704 24.3264C27.711 24.3485 27.7562 24.3608 27.8024 24.3624C27.9284 24.3729 28.0547 24.3453 28.1648 24.2832C28.3302 24.1954 28.4638 24.0577 28.5464 23.8896C28.6472 23.6897 28.7214 23.4775 28.7672 23.2584C28.8125 23.0436 28.8851 22.8356 28.9832 22.6392C29.0626 22.4823 29.1871 22.3527 29.3408 22.2672C29.4445 22.208 29.5623 22.1782 29.6816 22.1808C29.7656 22.1808 29.8112 22.2024 29.8136 22.1976C29.7745 22.1733 29.73 22.1593 29.684 22.1568C29.5584 22.1425 29.4314 22.1659 29.3192 22.224C29.1517 22.3089 29.0149 22.444 28.928 22.6104C28.8267 22.8106 28.7509 23.0226 28.7024 23.2416C28.6573 23.4555 28.5872 23.6633 28.4936 23.8608C28.4168 24.0204 28.2939 24.1534 28.1408 24.2424C28.0394 24.3056 27.9219 24.3381 27.8024 24.336C27.7184 24.336 27.6728 24.3192 27.6704 24.3264Z" fill="#4E5159"/>
<path d="M27.7544 25.3873C27.7544 25.3873 27.7688 25.3873 27.7952 25.3873C27.8332 25.3948 27.8717 25.3996 27.9104 25.4017C28.0537 25.4119 28.1977 25.4005 28.3376 25.3681C28.8055 25.2568 29.2153 24.9753 29.4872 24.5785C29.7541 24.1841 29.919 23.7298 29.9672 23.2561C29.971 23.1751 29.983 23.0947 30.0032 23.0161C30.018 22.9592 30.0508 22.9087 30.0968 22.8721C30.1358 22.8407 30.1836 22.8222 30.2336 22.8193C30.2074 22.8114 30.1797 22.8101 30.1529 22.8156C30.1261 22.821 30.101 22.833 30.08 22.8505C30.0274 22.8888 29.988 22.9425 29.9672 23.0041C29.9427 23.0822 29.9266 23.1626 29.9192 23.2441C29.8616 23.7059 29.6973 24.148 29.4392 24.5353C29.1761 24.9193 28.7846 25.1967 28.3352 25.3177C28.1458 25.3682 27.9503 25.3916 27.7544 25.3873Z" fill="#4E5159"/>
<path d="M72.5498 78.7751C72.5162 78.7751 72.4874 77.0207 72.4874 74.8559C72.4874 72.6911 72.5162 70.9343 72.5498 70.9343C72.5834 70.9343 72.6122 72.6911 72.6122 74.8559C72.6122 77.0207 72.5834 78.7751 72.5498 78.7751Z" fill="#3E4551"/>
<path d="M73.661 79.6007C73.625 79.6007 73.5986 78.0215 73.5986 76.0751C73.5986 74.1287 73.625 72.5471 73.661 72.5471C73.697 72.5471 73.7234 74.1263 73.7234 76.0751C73.7234 78.0239 73.6898 79.6007 73.661 79.6007Z" fill="#3E4551"/>
<path d="M79.7403 61.3367C79.7067 61.3367 79.6779 59.7431 79.6779 57.7775C79.6779 55.8119 79.7067 54.2183 79.7403 54.2183C79.7739 54.2183 79.8027 55.8119 79.8027 57.7775C79.8027 59.7431 79.7763 61.3367 79.7403 61.3367Z" fill="#3E4551"/>
<path d="M80.777 57.9719C80.741 57.9719 80.7146 56.7839 80.7146 55.3175C80.7146 53.8511 80.741 52.6655 80.777 52.6655C80.813 52.6655 80.8394 53.8511 80.8394 55.3175C80.8394 56.7839 80.8106 57.9719 80.777 57.9719Z" fill="#3E4551"/>
<path d="M86.2107 79.0223L78.7347 74.5583C78.487 74.4101 78.3081 74.1697 78.2375 73.8898C78.1668 73.61 78.2101 73.3135 78.3579 73.0655L84.5355 62.7191C84.6086 62.5962 84.7053 62.4889 84.82 62.4034C84.9346 62.3179 85.065 62.2559 85.2037 62.2209C85.3424 62.1859 85.4866 62.1786 85.6281 62.1995C85.7696 62.2203 85.9056 62.2688 86.0283 62.3423L90.7707 65.1719L92.1819 71.1455L87.7035 78.6455C87.6303 78.7684 87.5337 78.8757 87.419 78.9611C87.3044 79.0466 87.1739 79.1087 87.0353 79.1437C86.8966 79.1787 86.7524 79.186 86.6109 79.1651C86.4694 79.1443 86.3334 79.0958 86.2107 79.0223Z" fill="#6869AC"/>
<g opacity="0.2">
<path d="M80.0099 70.2947L89.3549 75.8743L87.8465 78.4006C87.6595 78.7138 87.3558 78.9398 87.0022 79.0291C86.6485 79.1183 86.2739 79.0634 85.9608 78.8764L78.9773 74.7068C78.6641 74.5198 78.438 74.2161 78.3488 73.8624C78.2596 73.5088 78.3145 73.1342 78.5015 72.821L80.0099 70.2947Z" fill="#101723"/>
</g>
<path d="M90.7706 65.1719L89.021 68.0855C88.8838 68.316 88.8437 68.5915 88.9094 68.8516C88.9751 69.1117 89.1412 69.335 89.3714 69.4727L92.1722 71.1527L90.7706 65.1719Z" fill="#6869AC"/>
<g opacity="0.2">
<path d="M88.9178 68.3639C88.7879 68.585 88.7375 68.8438 88.775 69.0975C88.8126 69.3512 88.9358 69.5843 89.1242 69.7583C89.1488 69.7857 89.1753 69.8114 89.2034 69.8351C89.5298 70.1183 91.6826 71.9831 91.7138 71.9279L92.1818 71.1455L89.381 69.4655C89.381 69.4655 88.697 69.0335 88.9178 68.3639Z" fill="#101723"/>
</g>
<g opacity="0.3">
<path d="M90.7706 65.1719L89.021 68.0855C88.8838 68.316 88.8437 68.5915 88.9094 68.8516C88.9751 69.1117 89.1412 69.335 89.3714 69.4727L92.1722 71.1527L90.7706 65.1719Z" fill="white"/>
</g>
<path d="M69.8355 87.0959L59.9811 89.1047C59.8191 89.138 59.6521 89.139 59.4897 89.1077C59.3273 89.0764 59.1727 89.0133 59.0347 88.9221C58.8967 88.8309 58.778 88.7134 58.6855 88.5763C58.593 88.4392 58.5284 88.2852 58.4955 88.1231L55.7163 74.4695C55.683 74.3075 55.682 74.1405 55.7133 73.9781C55.7447 73.8157 55.8077 73.6611 55.8989 73.5231C55.9901 73.3851 56.1076 73.2664 56.2447 73.1739C56.3818 73.0814 56.5358 73.0168 56.6979 72.9839L62.9547 71.7095L68.8131 75.7151L70.8267 85.6103C70.8599 85.773 70.8605 85.9407 70.8286 86.1036C70.7966 86.2665 70.7327 86.4215 70.6406 86.5596C70.5484 86.6977 70.4299 86.8162 70.2917 86.9083C70.1535 87.0003 69.9984 87.0641 69.8355 87.0959Z" fill="#4E5159"/>
<path d="M62.9451 71.7095L63.7275 75.5495C63.7575 75.7004 63.8172 75.8439 63.9029 75.9717C63.9887 76.0995 64.0989 76.209 64.2271 76.294C64.3554 76.379 64.4992 76.4378 64.6503 76.4669C64.8014 76.4961 64.9568 76.4951 65.1075 76.4639L68.8035 75.7127L62.9451 71.7095Z" fill="#3E4551"/>
<path d="M62.861 75.5639C62.861 75.6143 61.8579 75.8615 60.5979 76.1183C59.3379 76.3751 58.3082 76.5431 58.2962 76.4927C58.2842 76.4423 59.2994 76.1975 60.5594 75.9407C61.8194 75.6839 62.861 75.5159 62.861 75.5639Z" fill="#FAFAFA"/>
<path d="M66.2571 77.1359C66.2571 77.1863 64.5939 77.5679 62.5203 77.9903C60.4467 78.4127 58.7571 78.7103 58.7475 78.6671C58.7379 78.6239 60.4107 78.2351 62.4843 77.8127C64.5579 77.3903 66.2475 77.0879 66.2571 77.1359Z" fill="#FAFAFA"/>
<path d="M67.3034 78.8135C67.3034 78.8615 65.489 79.2767 63.2234 79.7351C60.9578 80.1935 59.1218 80.5295 59.1122 80.4791C59.1026 80.4287 60.9266 80.0183 63.1922 79.5575C65.4578 79.0967 67.2938 78.7631 67.3034 78.8135Z" fill="#FAFAFA"/>
<path d="M67.6611 80.5247C67.6611 80.5751 65.8467 80.9879 63.5811 81.4487C61.3155 81.9095 59.4795 82.2407 59.4699 82.1927C59.4603 82.1447 61.2843 81.7295 63.5499 81.2687C65.8155 80.8079 67.6419 80.4743 67.6611 80.5247Z" fill="#FAFAFA"/>
<path d="M67.9995 82.2359C67.9995 82.2863 66.1851 82.6991 63.9195 83.1599C61.6539 83.6207 59.8179 83.9519 59.8083 83.9039C59.7987 83.8559 61.6227 83.4407 63.8883 82.9799C66.1539 82.5191 67.9899 82.1879 67.9995 82.2359Z" fill="#FAFAFA"/>
<path d="M68.3475 83.9471C68.3595 83.9975 66.5331 84.4103 64.2675 84.8711C62.0019 85.3319 60.1659 85.6631 60.1563 85.6151C60.1467 85.5671 61.9707 85.1519 64.2363 84.6911C66.5019 84.2303 68.3379 83.8991 68.3475 83.9471Z" fill="#FAFAFA"/>
<path d="M87.6626 50.9375L78.8738 51.5471C78.7294 51.5576 78.5844 51.5394 78.447 51.4936C78.3096 51.4478 78.1826 51.3753 78.0734 51.2803C77.9641 51.1853 77.8747 51.0696 77.8102 50.94C77.7458 50.8103 77.7076 50.6692 77.6978 50.5247L76.853 38.3567C76.8429 38.2124 76.8613 38.0674 76.9072 37.9302C76.9532 37.7929 77.0257 37.6661 77.1206 37.5569C77.2155 37.4477 77.3311 37.3582 77.4606 37.2937C77.5901 37.2292 77.7311 37.1908 77.8754 37.1807L83.4506 36.7943L88.0754 40.9439L88.6874 49.7615C88.7072 50.0533 88.6104 50.341 88.4183 50.5615C88.2262 50.782 87.9544 50.9172 87.6626 50.9375Z" fill="#4E5159"/>
<g opacity="0.2">
<path d="M77.4719 47.2622L88.4614 46.4995L88.6494 49.2074C88.6644 49.4244 88.6366 49.6422 88.5675 49.8484C88.4984 50.0546 88.3893 50.2451 88.2466 50.4092C88.1038 50.5732 87.9301 50.7075 87.7355 50.8045C87.5408 50.9014 87.3289 50.9591 87.112 50.9741L79.4241 51.5077C79.2071 51.5227 78.9894 51.4949 78.7832 51.4258C78.577 51.3567 78.3864 51.2476 78.2224 51.1049C78.0583 50.9621 77.924 50.7884 77.827 50.5938C77.7301 50.3991 77.6725 50.1872 77.6574 49.9703L77.4695 47.2624L77.4719 47.2622Z" fill="#101723"/>
</g>
<path d="M83.4507 36.7943L83.6907 40.2191C83.6992 40.3541 83.7343 40.4861 83.794 40.6075C83.8537 40.7289 83.9368 40.8373 84.0385 40.9265C84.1401 41.0157 84.2584 41.0839 84.3866 41.1272C84.5147 41.1706 84.6501 41.1882 84.7851 41.1791L88.0779 40.9511L83.4507 36.7943Z" fill="#3E4551"/>
<path d="M97.2146 82.8167H51.2378V112.692H97.2146V82.8167Z" fill="#6869AC"/>
<g opacity="0.3">
<path d="M97.2147 82.8167H85.0635V112.692H97.2147V82.8167Z" fill="#101723"/>
</g>
<path d="M85.0635 82.8167L92.0139 90.9959H103.498L97.2147 82.8167H85.0635Z" fill="#6869AC"/>
<path d="M51.2378 82.8167L41.7938 90.9959H77.5202L85.0634 82.8167H51.2378Z" fill="#6869AC"/>
<path d="M85.0635 82.8119C85.0635 82.8119 85.0203 82.8671 84.9315 82.9679L84.5355 83.4095L83.0211 85.0823C81.7011 86.5223 79.8219 88.5671 77.5635 91.0319L77.5467 91.0487H77.5227L65.0595 91.0679H48.3747L43.3203 91.0535L41.9451 91.0415H41.5875H41.4651C41.4651 91.0415 41.5059 91.0415 41.5875 91.0415H41.9451L43.3203 91.0271L48.3747 91.0031L65.0595 90.9719H77.5227L77.4843 90.9887C79.7595 88.5383 81.6483 86.4983 82.9755 85.0703L84.5139 83.4215C84.6915 83.2367 84.8259 83.0927 84.9219 82.9895L85.0635 82.8119Z" fill="#3E4551"/>
<path d="M85.0634 112.692C85.0298 112.692 85.001 106.006 85.001 97.7567C85.001 89.5079 85.0298 82.8167 85.0634 82.8167C85.097 82.8167 85.1258 89.5055 85.1258 97.7567C85.1258 106.008 85.0994 112.692 85.0634 112.692Z" fill="#3E4551"/>
<g opacity="0.3">
<path d="M69.4635 108.283H64.5243V112.694H69.4635V108.283Z" fill="white"/>
</g>
<path d="M75.1908 94.5938L58.7136 98.2558L60.3257 105.509L76.8028 101.847L75.1908 94.5938Z" fill="white"/>
<path d="M76.385 101.695C76.385 101.695 76.373 101.652 76.3538 101.573C76.3346 101.494 76.3058 101.371 76.2698 101.22C76.1978 100.906 76.0922 100.452 75.9578 99.8687C75.6938 98.6975 75.3098 97.0103 74.837 94.9295L74.8898 94.9631L59.0954 98.4911C59.0522 98.5583 59.1506 98.3999 59.141 98.4191V98.4311V98.4431V98.4719V98.5271L59.1674 98.6399L59.2154 98.8607L59.3138 99.3047C59.3786 99.5975 59.4458 99.8903 59.5082 100.181C59.6378 100.763 59.7658 101.338 59.8922 101.906C60.1322 103.039 60.3866 104.138 60.6122 105.192L60.5426 105.146L71.8706 102.66L75.161 101.94L76.0442 101.753L76.2842 101.705L76.3634 101.69L76.2914 101.71L76.0706 101.762L75.2018 101.964L71.933 102.708L60.5762 105.259L60.5186 105.271L60.5066 105.214L59.7746 101.928C59.6474 101.362 59.5202 100.786 59.3906 100.205C59.3258 99.9119 59.261 99.6191 59.1938 99.3263L59.117 98.8919L59.069 98.6711L59.045 98.5607L59.0306 98.5031V98.4767V98.4551C59.0306 98.4695 59.1218 98.3135 59.081 98.3783L74.861 94.8767H74.9042V94.9199L75.9866 99.8951C76.109 100.476 76.2074 100.927 76.2722 101.242C76.3034 101.39 76.3274 101.506 76.3466 101.59C76.3658 101.674 76.385 101.695 76.385 101.695Z" fill="#3E4551"/>
<g opacity="0.3">
<path d="M51.2378 91.0247V93.3095L78.0506 93.1727L84.9194 82.9751L77.5202 90.9959L51.2378 91.0247Z" fill="#101723"/>
</g>
<path d="M50.801 67.1783L42.0386 65.0183C41.8345 64.9678 41.6586 64.8383 41.5498 64.6584C41.4409 64.4784 41.4078 64.2626 41.4578 64.0583L44.381 52.2431C44.4316 52.0389 44.561 51.8631 44.741 51.7542C44.9209 51.6454 45.1367 51.6123 45.341 51.6623L51.4682 53.1767L54.0554 57.3359L51.7634 66.5975C51.7124 66.8019 51.5825 66.9777 51.4021 67.0865C51.2218 67.1954 51.0056 67.2284 50.801 67.1783Z" fill="#6869AC"/>
<path d="M51.4731 53.1479L50.8923 55.4951C50.8582 55.6331 50.8516 55.7765 50.873 55.9171C50.8944 56.0577 50.9432 56.1927 51.0168 56.3144C51.0903 56.4361 51.1871 56.5421 51.3017 56.6263C51.4162 56.7106 51.5462 56.7715 51.6843 56.8055L54.0531 57.3359L51.4731 53.1479Z" fill="#6869AC"/>
<path d="M50.0618 64.5191C50.0618 64.5191 50.0618 64.4783 50.0834 64.4087C50.105 64.3391 50.1266 64.2263 50.1554 64.0943C50.2226 63.8135 50.3162 63.4175 50.4338 62.9183C50.6738 61.9055 51.0218 60.4751 51.437 58.7567L51.473 58.8167L45.4922 57.3455L45.5618 57.3047V57.3287L45.5498 57.3791L45.5258 57.4775L45.4778 57.6719C45.4442 57.8015 45.413 57.9335 45.3794 58.0607C45.317 58.3199 45.2522 58.5767 45.1898 58.8287C45.065 59.3351 44.9498 59.8319 44.8226 60.3143C44.5826 61.2743 44.3546 62.1911 44.1434 63.0287L44.1074 62.9687L48.4274 64.0607L49.6466 64.3751L49.9706 64.4615L50.0834 64.4951L49.9778 64.4759L49.661 64.4015L48.4466 64.1159L44.093 63.0647H44.045L44.057 63.0143C44.2634 62.1743 44.4866 61.2623 44.7242 60.2975C44.8418 59.8175 44.9642 59.3183 45.089 58.8119C45.1514 58.5575 45.2162 58.3031 45.2786 58.0439C45.3098 57.9143 45.3434 57.7847 45.3746 57.6551L45.4226 57.4583L45.449 57.3599V57.3119V57.2855V57.2639C45.3866 57.2999 45.533 57.2111 45.5186 57.2207L51.4946 58.7063H51.5426V58.7543C51.1034 60.4799 50.7386 61.9175 50.4818 62.9327C50.3546 63.4271 50.2538 63.8159 50.1818 64.0919L50.1026 64.3943C50.0944 64.4375 50.0807 64.4794 50.0618 64.5191Z" fill="white"/>
<path d="M46.9995 63.8351C46.9683 63.8351 47.2635 62.5343 47.6547 60.9551C48.0459 59.3759 48.3915 58.0871 48.4227 58.0943C48.4539 58.1015 48.1587 59.3951 47.7651 60.9743C47.3715 62.5535 47.0211 63.8519 46.9995 63.8351Z" fill="white"/>
<path d="M50.381 63.1055C50.381 63.1343 49.0226 62.8271 47.3666 62.4191C45.7106 62.0111 44.381 61.6511 44.381 61.6199C44.381 61.5887 45.737 61.8959 47.3954 62.3063C49.0538 62.7167 50.3954 63.0743 50.381 63.1055Z" fill="white"/>
<path d="M50.8178 61.6559C50.8178 61.6847 49.4618 61.3775 47.8058 60.9695C46.1498 60.5615 44.8106 60.2015 44.8178 60.1703C44.825 60.1391 46.1738 60.4487 47.8322 60.8567C49.4906 61.2647 50.8274 61.6247 50.8178 61.6559Z" fill="white"/>
<path d="M51.1346 60.1775C51.1346 60.2087 49.7882 59.9039 48.1442 59.4983C46.5002 59.0927 45.173 58.7351 45.1802 58.7063C45.1874 58.6775 46.5266 58.9799 48.173 59.3855C49.8194 59.7911 51.1442 60.1463 51.1346 60.1775Z" fill="white"/>
<g opacity="0.4">
<path d="M51.4731 53.1479L50.8923 55.4951C50.8582 55.6331 50.8516 55.7765 50.873 55.9171C50.8944 56.0577 50.9432 56.1927 51.0168 56.3144C51.0903 56.4361 51.1871 56.5421 51.3017 56.6263C51.4162 56.7106 51.5462 56.7715 51.6843 56.8055L54.0531 57.3359L51.4731 53.1479Z" fill="white"/>
</g>
<path d="M76.3442 67.5071L65.8682 69.9815C65.696 70.0226 65.5173 70.0292 65.3425 70.0011C65.1677 69.973 65.0001 69.9106 64.8494 69.8177C64.6987 69.7247 64.5678 69.6029 64.4642 69.4593C64.3607 69.3157 64.2864 69.1531 64.2458 68.9807L60.821 54.4919C60.78 54.3198 60.7734 54.1413 60.8015 53.9667C60.8297 53.792 60.892 53.6246 60.985 53.4741C61.078 53.3236 61.1998 53.1929 61.3434 53.0896C61.487 52.9863 61.6496 52.9123 61.8218 52.8719L68.465 51.2999L74.861 55.3799L77.345 65.8895C77.4258 66.2367 77.3658 66.6017 77.1783 66.9048C76.9908 67.2079 76.6909 67.4244 76.3442 67.5071Z" fill="#6869AC"/>
<g opacity="0.2">
<path d="M63.3339 65.0902L76.4321 61.9939L77.3629 65.9318C77.4417 66.2651 77.3849 66.616 77.2049 66.9073C77.025 67.1987 76.7367 67.4066 76.4034 67.4854L65.8183 69.9876C65.4851 70.0664 65.1342 70.0096 64.8428 69.8296C64.5515 69.6497 64.3435 69.3613 64.2647 69.0281L63.3339 65.0902Z" fill="#101723"/>
</g>
<path d="M68.4651 51.2879L69.4251 55.3679C69.5021 55.6909 69.7039 55.9703 69.9864 56.1448C70.2688 56.3193 70.609 56.3748 70.9323 56.2991L74.8611 55.3751L68.4651 51.2879Z" fill="#6869AC"/>
<g opacity="0.2">
<path d="M69.5811 55.7159C69.6564 56.0241 69.8348 56.2972 70.0867 56.4901C70.3385 56.683 70.6487 56.7842 70.9659 56.7767C71.0114 56.7791 71.0571 56.7791 71.1027 56.7767C71.6355 56.7479 75.1515 56.5511 75.1323 56.4743C75.1131 56.3975 74.8731 55.3775 74.8731 55.3775L70.9491 56.3039C70.9491 56.3039 69.9507 56.5007 69.5811 55.7159Z" fill="#101723"/>
</g>
<g opacity="0.4">
<path d="M68.4651 51.2879L69.4251 55.3679C69.5021 55.6909 69.7039 55.9703 69.9864 56.1448C70.2688 56.3193 70.609 56.3748 70.9323 56.2991L74.8611 55.3751L68.4651 51.2879Z" fill="white"/>
</g>
<path d="M60.5 100.585L60.9278 100.479L61.5776 102.051L61.7627 100.271L62.1682 100.17L63.1123 101.602L62.9792 99.9682L63.3942 99.8649L63.5325 102.245L63.1318 102.345L62.0627 100.717L61.8357 102.668L61.4397 102.766L60.5 100.585Z" fill="#101723"/>
<path d="M64.0058 101.575C63.9232 101.244 64.1236 101.018 64.607 100.897C64.7205 100.869 64.8365 100.851 64.9553 100.844L64.924 100.719C64.8868 100.569 64.7606 100.521 64.5453 100.575C64.363 100.62 64.1671 100.697 63.9577 100.805L63.8745 100.472C64.084 100.363 64.2799 100.286 64.4622 100.241C64.9584 100.117 65.2521 100.239 65.3434 100.606L65.6221 101.725L65.3772 101.786L65.1905 101.674C65.0701 101.81 64.9224 101.899 64.7474 101.943C64.3393 102.045 64.0921 101.922 64.0058 101.575ZM65.0265 101.131C64.9152 101.136 64.7991 101.153 64.6783 101.183C64.4758 101.234 64.3917 101.328 64.426 101.466C64.4629 101.614 64.5662 101.667 64.7358 101.625C64.8758 101.59 64.9948 101.514 65.093 101.398L65.0265 101.131Z" fill="#101723"/>
<path d="M65.5145 99.6918L65.8262 99.6142L65.9571 99.8687L66.3769 99.7642L66.46 100.098L66.0863 100.191L66.2775 100.959C66.3163 101.115 66.403 101.176 66.5376 101.143L66.7094 101.1L66.7925 101.434L66.4172 101.527C66.1373 101.597 65.96 101.482 65.8854 101.182L65.5145 99.6918Z" fill="#101723"/>
<path d="M68.3009 101.008C68.171 101.074 68.0318 101.126 67.8834 101.162C67.2897 101.31 66.921 101.095 66.7771 100.517C66.6439 99.9821 66.8741 99.6405 67.4678 99.4927C67.6162 99.4558 67.7633 99.436 67.909 99.4335L67.9921 99.7675C67.8464 99.77 67.7099 99.7871 67.5827 99.8187C67.2488 99.9019 67.1207 100.1 67.1986 100.413C67.287 100.768 67.4981 100.904 67.8321 100.821C67.9593 100.789 68.0879 100.74 68.2178 100.674L68.3009 101.008Z" fill="#101723"/>
<path d="M68.5911 100.986L68.025 98.7123L68.4464 98.6074L68.6499 99.4248C68.746 99.25 68.8964 99.1371 69.101 99.0862C69.4964 98.9878 69.7453 99.1442 69.8477 99.5556L70.1097 100.608L69.6883 100.713L69.4263 99.6605C69.3804 99.476 69.2657 99.4066 69.0823 99.4522C68.9455 99.4863 68.8256 99.5741 68.7223 99.7158L69.0125 100.881L68.5911 100.986Z" fill="#101723"/>
<path d="M70.3643 98.13L70.9303 100.404L70.5089 100.509L69.9429 98.2349L70.3643 98.13Z" fill="#101723"/>
<path d="M71.1848 97.9258L71.268 98.2597L70.8465 98.3646L70.7634 98.0307L71.1848 97.9258ZM71.3353 98.53L71.7509 100.2L71.3295 100.305L70.9138 98.6349L71.3353 98.53Z" fill="#101723"/>
<path d="M72.1302 100.021L72.0431 99.6711C72.2471 99.6991 72.4705 99.6829 72.7133 99.6225C72.8946 99.5774 72.9707 99.4965 72.9417 99.3799C72.914 99.2686 72.8392 99.2281 72.7173 99.2584L72.4151 99.3336C72.0759 99.4181 71.8647 99.2933 71.7816 98.9594C71.6945 98.6095 71.8985 98.373 72.3936 98.2497C72.6035 98.1975 72.8091 98.1801 73.0105 98.1975L73.0976 98.5474C72.8936 98.5193 72.6829 98.5324 72.4656 98.5865C72.2376 98.6432 72.1382 98.7299 72.1672 98.8465C72.1949 98.9578 72.275 98.997 72.4075 98.964L72.6779 98.8967C73.0489 98.8043 73.276 98.9251 73.3592 99.2591C73.4462 99.6089 73.2534 99.8427 72.7805 99.9604C72.5484 100.018 72.3316 100.038 72.1302 100.021Z" fill="#101723"/>
<path d="M73.2748 97.7602L73.5865 97.6826L73.7174 97.9371L74.1373 97.8326L74.2204 98.1666L73.8467 98.2596L74.0379 99.0277C74.0767 99.1835 74.1634 99.2447 74.298 99.2112L74.4698 99.1684L74.5529 99.5024L74.1776 99.5958C73.8977 99.6654 73.7204 99.5503 73.6457 99.2502L73.2748 97.7602Z" fill="#101723"/>
<path d="M65.3546 62.8683L64.4822 58.9116L65.2154 58.7499L67.9402 61.1724L67.3045 58.2893L68.01 58.1337L68.8825 62.0904L68.1492 62.2521L65.411 59.7687L66.0602 62.7127L65.3546 62.8683Z" fill="#AEADD5"/>
<path d="M69.3725 60.3518L68.8429 57.9501L69.5761 57.7884L70.1057 60.1901C70.2448 60.821 70.6372 61.0652 71.2828 60.9229C71.9284 60.7805 72.1817 60.3939 72.0426 59.763L71.513 57.3613L72.2462 57.1996L72.7758 59.6014C73.0085 60.6565 72.5576 61.3091 71.4231 61.5593C70.2887 61.8094 69.6051 61.4069 69.3725 60.3518Z" fill="#AEADD5"/>
<path d="M65.3374 67.7879L64.8964 65.8444L65.2565 65.7626L66.604 66.946L66.2827 65.5298L66.6292 65.4512L67.0702 67.3947L66.7101 67.4764L65.3558 66.2632L65.6839 67.7093L65.3374 67.7879Z" fill="white"/>
<path d="M68.4059 65.5911L68.7297 67.0182L68.4484 67.082L68.3636 66.9098C68.2271 67.0684 68.0669 67.1686 67.883 67.2103C67.5912 67.2765 67.4062 67.137 67.3279 66.7918L67.1215 65.8825L67.4817 65.8008L67.6859 66.7005C67.7216 66.8582 67.8084 66.9214 67.9461 66.8901C68.063 66.8636 68.1716 66.7899 68.2718 66.6691L68.0457 65.6728L68.4059 65.5911Z" fill="white"/>
<path d="M69.7164 66.7943L69.2754 64.8507L70.1861 64.6441C70.5557 64.5602 70.7748 64.6692 70.8433 64.9709C70.8934 65.192 70.8088 65.3774 70.5894 65.5273C70.8576 65.5169 71.0197 65.6349 71.0756 65.8814C71.1625 66.2647 71.0035 66.5022 70.5985 66.5941L69.7164 66.7943ZM70.5126 66.2849C70.6721 66.2488 70.7333 66.1491 70.6963 65.986C70.6505 65.784 70.5084 65.71 70.2701 65.764L70.1614 65.7887L70.1086 65.5563C70.3963 65.4386 70.5175 65.2797 70.472 65.0794C70.4474 64.9707 70.368 64.9315 70.2339 64.962L69.7065 65.0816L70.0057 66.4L70.5126 66.2849Z" fill="white"/>
<path d="M71.3104 65.9653C71.2461 65.6817 71.4205 65.493 71.8336 65.3993C71.9306 65.3773 72.0296 65.3643 72.1307 65.3605L72.1063 65.2531C72.0773 65.1253 71.9709 65.0823 71.7869 65.1241C71.6311 65.1594 71.4632 65.2213 71.2832 65.3098L71.2184 65.0244C71.3984 64.9359 71.5663 64.874 71.7222 64.8386C72.1462 64.7424 72.3938 64.8511 72.4649 65.1646L72.682 66.1214L72.4727 66.1689L72.316 66.0701C72.2112 66.1834 72.084 66.2571 71.9345 66.291C71.5857 66.3702 71.3776 66.2616 71.3104 65.9653ZM72.1862 65.6051C72.0915 65.6075 71.9924 65.6205 71.8892 65.6439C71.7161 65.6832 71.6429 65.7617 71.6697 65.8795C71.6984 66.0063 71.7853 66.0533 71.9303 66.0204C72.0499 65.9933 72.1525 65.931 72.238 65.8334L72.1862 65.6051Z" fill="white"/>
<path d="M73.0232 66.044L72.6994 64.6169L72.978 64.5537L73.0703 64.7528C73.1755 64.5822 73.3155 64.4771 73.4904 64.4374C73.8283 64.3607 74.0372 64.4982 74.117 64.8497L74.3211 65.7495L73.961 65.8312L73.7568 64.9315C73.721 64.7738 73.6248 64.7128 73.468 64.7483C73.3511 64.7748 73.2476 64.8474 73.1573 64.966L73.3833 65.9623L73.0232 66.044Z" fill="white"/>
<path d="M74.6623 65.6721L74.2213 63.7285L74.5814 63.6468L74.7239 64.2747C74.8548 64.1669 75.0017 64.0945 75.1648 64.0575C75.5291 63.9749 75.7423 64.0708 75.8046 64.3453C75.8498 64.5447 75.7584 64.7293 75.5301 64.8992L76.0975 65.3464L75.6571 65.4463L75.1691 65.0212L75.1312 64.854C75.3787 64.7397 75.4881 64.6196 75.4596 64.4937C75.4304 64.365 75.3297 64.3202 75.1575 64.3593C75.037 64.3866 74.9143 64.4545 74.7893 64.5629L75.0224 65.5903L74.6623 65.6721Z" fill="white"/>
<path d="M79.5581 73.0984L80.3187 71.8002L80.5683 71.9465L80.4315 73.1894L81.4398 72.4571L81.6804 72.598L80.9198 73.8962L80.6974 73.7659L81.2271 72.8617L80.3452 73.5595L80.14 73.4393L80.3102 72.3245L79.7805 73.2287L79.5581 73.0984Z" fill="white"/>
<path d="M82.1706 72.8852L82.0589 73.0758L81.8183 72.9349L81.93 72.7443L82.1706 72.8852ZM81.9685 73.2302L81.41 74.1834L81.1694 74.0424L81.7279 73.0892L81.9685 73.2302Z" fill="white"/>
<path d="M82.3574 74.7018C82.2681 74.6739 82.181 74.6351 82.0963 74.5855C81.7574 74.3869 81.6846 74.1227 81.8778 73.7929C82.0569 73.4872 82.3159 73.4337 82.6548 73.6323C82.7395 73.6819 82.8159 73.7389 82.8839 73.8031L82.7722 73.9937C82.7042 73.9295 82.6339 73.8761 82.5612 73.8335C82.3706 73.7219 82.223 73.7553 82.1184 73.9338C81.9996 74.1366 82.0355 74.2938 82.2262 74.4055C82.2988 74.448 82.3798 74.4833 82.4691 74.5112L82.3574 74.7018Z" fill="white"/>
<path d="M82.5003 74.8221L83.0587 73.8689L83.2448 73.978L83.2035 74.1172C83.3346 74.085 83.4467 74.0962 83.5399 74.1508L83.4261 74.3451C83.3365 74.2926 83.2345 74.2829 83.1201 74.3158L82.7409 74.9631L82.5003 74.8221Z" fill="white"/>
<path d="M83.5941 74.8179C83.4775 75.0171 83.4963 75.1618 83.6506 75.2522C83.805 75.3427 83.9405 75.2883 84.0571 75.0892C84.1709 74.8949 84.1507 74.7526 83.9964 74.6622C83.842 74.5717 83.708 74.6237 83.5941 74.8179ZM83.3514 74.6806C83.5387 74.3611 83.7896 74.2935 84.1043 74.4779C84.419 74.6623 84.4828 74.9142 84.2956 75.2338C84.1087 75.5527 83.8579 75.62 83.5432 75.4356C83.2297 75.2519 83.1658 75.0003 83.3514 74.6806Z" fill="white"/>
<path d="M84.2245 75.7713L84.3415 75.5716C84.4226 75.676 84.5324 75.7689 84.671 75.8501C84.7745 75.9107 84.8458 75.9077 84.8848 75.8411C84.922 75.7776 84.9058 75.7254 84.8362 75.6847L84.6637 75.5836C84.4701 75.4701 84.4291 75.3181 84.5408 75.1274C84.6578 74.9277 84.8576 74.9107 85.1402 75.0763C85.2601 75.1465 85.3623 75.2307 85.4469 75.3291L85.3299 75.5288C85.2488 75.4244 85.1462 75.3359 85.0222 75.2632C84.8921 75.1869 84.8075 75.1821 84.7685 75.2487C84.7313 75.3122 84.7505 75.3662 84.8261 75.4105L84.9804 75.5009C85.1923 75.625 85.2423 75.7824 85.1306 75.973C85.0136 76.1727 84.8202 76.1935 84.5502 76.0354C84.4177 75.9577 84.3091 75.8697 84.2245 75.7713Z" fill="white"/>
<path d="M85.6058 75.9966C85.4892 76.1957 85.508 76.3404 85.6623 76.4309C85.8167 76.5213 85.9522 76.4669 86.0688 76.2678C86.1826 76.0735 86.1624 75.9312 86.0081 75.8408C85.8537 75.7504 85.7197 75.8023 85.6058 75.9966ZM85.3631 75.8592C85.5504 75.5397 85.8013 75.4721 86.116 75.6565C86.4307 75.8409 86.4945 76.0928 86.3073 76.4124C86.1204 76.7313 85.8696 76.7986 85.5549 76.6142C85.2414 76.4306 85.1775 76.1789 85.3631 75.8592Z" fill="white"/>
<path d="M86.2096 76.9954L86.768 76.0422C86.9212 75.7807 87.1406 75.7337 87.4263 75.901C87.5044 75.9468 87.5681 76.0004 87.6175 76.0618L87.5058 76.2524C87.46 76.1931 87.4021 76.1429 87.3319 76.1018C87.1951 76.0216 87.0873 76.0488 87.0086 76.1831L87.2946 76.3506L87.1829 76.5413L86.8969 76.3737L86.4502 77.1363L86.2096 76.9954Z" fill="white"/>
<path d="M87.5184 76.2745L87.6964 76.3787L87.6423 76.5544L87.8819 76.6948L87.7702 76.8854L87.5569 76.7604L87.3 77.1989C87.2479 77.2879 87.2603 77.3548 87.3371 77.3999L87.4352 77.4573L87.3235 77.648L87.1092 77.5224C86.9494 77.4288 86.9197 77.2964 87.0201 77.1251L87.5184 76.2745Z" fill="white"/>
<path d="M81.5603 69.5677L82.7526 67.3874L83.1719 67.6167L83.0067 69.6754L84.6356 68.4172L85.0397 68.6381L83.8474 70.8184L83.4738 70.6142L84.3043 69.0956L82.8822 70.2907L82.5376 70.1022L82.7643 68.2534L81.9339 69.772L81.5603 69.5677Z" fill="#AEADD5"/>
<path d="M84.3167 70.9563L84.5168 70.5903C84.6909 70.7912 84.9156 70.9669 85.1911 71.1175C85.5255 71.3004 85.7538 71.28 85.8761 71.0564C85.9651 70.8938 85.9069 70.7563 85.7016 70.644L85.36 70.4573C84.9138 70.2132 84.8019 69.8879 85.0242 69.4814C85.2688 69.0341 85.7087 68.9842 86.344 69.3316C86.588 69.465 86.7998 69.6271 86.9794 69.8177L86.7793 70.1837C86.6052 69.9828 86.3962 69.8157 86.1522 69.6823C85.7863 69.4822 85.545 69.4889 85.4282 69.7023C85.3393 69.865 85.3833 69.9946 85.5601 70.0913L85.9017 70.2781C86.3764 70.5377 86.5025 70.8708 86.2802 71.2774C86.03 71.7348 85.6031 71.7984 84.9993 71.4682C84.7238 71.3176 84.4963 71.1469 84.3167 70.9563Z" fill="#AEADD5"/>
<path d="M88.8804 70.7385L88.6903 71.0861L87.6596 70.5225L87.3594 71.0713L88.3383 71.6066L88.1407 71.968L87.1572 71.4302L86.6528 72.3526L86.2564 72.1359L87.4487 69.9555L88.8804 70.7385Z" fill="#AEADD5"/>
<path d="M90.649 71.7057L90.4572 72.0564L89.8321 71.7145L88.8316 73.5441L88.4275 73.3232L89.4281 71.4936L88.803 71.1517L88.9947 70.801L90.649 71.7057Z" fill="#AEADD5"/>
<path d="M80.7678 47.597L80.7944 47.9688L80.1316 48.0163L80.2706 49.9563L79.8422 49.987L79.7032 48.047L79.0403 48.0945L79.0137 47.7227L80.7678 47.597Z" fill="white"/>
<path d="M81.7317 48.1454C82.2469 48.1084 82.5233 48.353 82.561 48.8789C82.566 48.949 82.5662 49.0194 82.5615 49.0901L81.4347 49.1709C81.4518 49.4102 81.6361 49.5172 81.9874 49.492C82.1588 49.4797 82.329 49.4513 82.4981 49.4067L82.5224 49.7462C82.3749 49.7892 82.1939 49.8185 81.9794 49.8338C81.364 49.8779 81.0356 49.6106 80.9941 49.0318C80.9545 48.4789 81.2003 48.1834 81.7317 48.1454ZM81.4134 48.8734L82.1376 48.8215L82.1367 48.8086C82.1199 48.5736 81.9929 48.4646 81.7558 48.4816C81.5294 48.4979 81.4153 48.6284 81.4134 48.8734Z" fill="white"/>
<path d="M82.942 49.6836L82.9165 49.3279C83.1106 49.3899 83.331 49.412 83.5778 49.3943C83.7621 49.3811 83.85 49.3152 83.8415 49.1966C83.8334 49.0835 83.7674 49.0313 83.6434 49.0402L83.3362 49.0622C82.9914 49.087 82.8067 48.9296 82.7824 48.5901C82.7569 48.2344 82.9958 48.0385 83.4992 48.0024C83.7126 47.9872 83.9159 48.0051 84.1091 48.0562L84.1346 48.4119C83.9406 48.35 83.7331 48.3269 83.5122 48.3428C83.2805 48.3594 83.1688 48.4269 83.1773 48.5455C83.1854 48.6587 83.2569 48.7104 83.3916 48.7008L83.6664 48.6811C84.0436 48.654 84.2444 48.8103 84.2688 49.1498C84.2942 49.5054 84.0666 49.7005 83.586 49.735C83.3499 49.7519 83.1353 49.7348 82.942 49.6836Z" fill="white"/>
<path d="M84.8693 47.303L85.035 49.6149L84.6065 49.6456L84.4409 47.3337L84.8693 47.303Z" fill="white"/>
<path d="M85.322 49.0629C85.2978 48.7256 85.5315 48.5393 86.023 48.5041C86.1383 48.4958 86.2544 48.4983 86.3712 48.5116L86.3621 48.3839C86.3512 48.2319 86.2364 48.1638 86.0176 48.1795C85.8322 48.1927 85.6283 48.2344 85.4058 48.3046L85.3815 47.9651C85.6039 47.8949 85.8079 47.8532 85.9932 47.84C86.4976 47.8038 86.7632 47.9722 86.7899 48.3451L86.8715 49.4833L86.6225 49.5011L86.4597 49.36C86.3193 49.4719 86.1602 49.5342 85.9823 49.547C85.5674 49.5767 85.3473 49.4154 85.322 49.0629ZM86.3921 48.8026C86.2828 48.7888 86.1667 48.7863 86.0438 48.7951C85.838 48.8098 85.74 48.8873 85.7501 49.0274C85.7609 49.1783 85.8525 49.2475 86.025 49.2352C86.1672 49.225 86.2961 49.1713 86.4116 49.0742L86.3921 48.8026Z" fill="white"/>
<path d="M80.1463 42.8731L80.1746 43.2873L79.4363 43.3376L79.5837 45.4982L79.1066 45.5308L78.9592 43.3702L78.221 43.4205L78.1928 43.0064L80.1463 42.8731Z" fill="#B9BBC0"/>
<path d="M80.5414 45.3244L80.512 44.8922C80.7766 44.9707 81.0715 44.9988 81.3968 44.9766C81.7917 44.9497 81.9802 44.8042 81.9622 44.5401C81.9491 44.348 81.8213 44.2603 81.5788 44.2768L81.1755 44.3043C80.6486 44.3403 80.3687 44.1182 80.336 43.638C80.2999 43.1099 80.657 42.8202 81.4072 42.769C81.6953 42.7494 81.9713 42.7728 82.2351 42.8392L82.2645 43.2713C81.9999 43.1929 81.7236 43.1635 81.4355 43.1832C81.0034 43.2126 80.7959 43.3534 80.8131 43.6055C80.8262 43.7975 80.9372 43.8864 81.146 43.8722L81.5493 43.8447C82.1099 43.8064 82.4066 44.0274 82.4393 44.5075C82.4762 45.0477 82.1381 45.3421 81.4251 45.3907C81.0998 45.4129 80.8052 45.3908 80.5414 45.3244Z" fill="#B9BBC0"/>
<path d="M83.2 42.6648L83.3474 44.8255L84.37 44.7557L84.3983 45.1698L82.8985 45.2721L82.7228 42.6974L83.2 42.6648Z" fill="#B9BBC0"/>
<path d="M85.1149 45.1209L84.6252 45.1543L85.5424 42.5051L86.0556 42.4701L87.3475 44.9686L86.8344 45.0036L86.493 44.3215L85.6378 44.3798L85.7734 43.9545L86.2919 43.9191L85.8208 42.9799L85.1149 45.1209Z" fill="#B9BBC0"/>
</svg>
